<svg xmlns="http://www.w3.org/2000/svg" xmlns:xlink="http://www.w3.org/1999/xlink" viewBox="0 0 500 500"><defs><clipPath id="freepik--clip-path--inject-2"><polygon points="98.78 146.01 97.69 152.86 96.29 161.57 95.42 167.04 86.79 167.04 85.92 161.57 84.52 152.86 83.43 146.01 98.78 146.01" style="fill:#FFC100"></polygon></clipPath><clipPath id="freepik--clip-path-2--inject-2"><path d="M290.8,277.31v3H289L287.91,286l-3.64,18.82a35.79,35.79,0,0,1-14.77-1.18l-.09-1.49-1.55-24.55h-1.19l1.19-3A36.65,36.65,0,0,1,290.8,277.31Z" style="fill:#FFC100"></path></clipPath><clipPath id="freepik--clip-path-3--inject-2"><path d="M289.22,295c-1.38-.6-3.82-7.63-3.82-7.63s-6.6-.35-8.58-3.71,3.7-1.39,4.69-1,6.92-.6,8.11,0,4.95,4.85,4.95,4.85l19.48,4.37,8.21,1.84,5.1-10.67a18.4,18.4,0,0,1,2.8-6.46c2-2.5,6.93-25.78,8.89-29.73s9.77-15.39,9.77-15.39l8.64,32.32s-5.69,36.48-14.19,45.54c-6.54,7-23.84,4.29-37.61-2.08a57.61,57.61,0,0,1-11.09-6.59" style="fill:#fff"></path></clipPath><clipPath id="freepik--clip-path-4--inject-2"><path d="M347.06,232.34s-10.09,11.14-10.72,14.9-8.4,29.11-9.07,29.79-5.83,8.33-5.61,12.42c0,0,15.21,9.5,18.43,13.76s13.22-30.06,13.22-42.72S347.06,232.34,347.06,232.34Z" style="fill:#FFC100"></path></clipPath><clipPath id="freepik--clip-path-5--inject-2"><path d="M342.09,451.88h-9.15c-6.66,0-9.46-2.06-9.46-2.06s-9.41,2-15.9,2c-5.26,0-13.75.59-20-.27a23.46,23.46,0,0,1-3.95-.86v-2c-2.08-6.33,1.19-8.65,9.93-11.34a29.92,29.92,0,0,0,10.81-5.61,24.16,24.16,0,0,0,7.53-12.26s23.66.45,27.13,5.37S342.09,451.88,342.09,451.88Z" style="fill:#fff"></path></clipPath><clipPath id="freepik--clip-path-6--inject-2"><path d="M314,179.64s4.89-12.24,6.68-14.76,12.9-2.38,21.54-2.58,16.76,10.15,16.76,10.15v13.41a132.33,132.33,0,0,0-22.33-3.62c-2.38-.19-4.86-.32-7.4-.35" style="fill:#FFC100"></path></clipPath><clipPath id="freepik--clip-path-7--inject-2"><path d="M314.22,181.8s-17.71-2.28-18.76-3.62,19.41-1.07,33.75,3.71A73.49,73.49,0,0,0,314.22,181.8Z" style="fill:#FFC100"></path></clipPath><clipPath id="freepik--clip-path-8--inject-2"><path d="M410.52,323.86s-10,17.7-23.81,17.35c-17.09-.43-39.52-19-49.73-20.29-6.42-.79-7.71-5.69-6.65-11.74,2-11.37,12.2-26.81,12.2-26.81A95.12,95.12,0,0,1,340,264c-.42-9.26.43-20.61,5.08-30.55,0,0-.24-5.07,10.53-13.47l11.13-7.28s15.86,9.59,25.36,21.31S415.63,318.67,410.52,323.86Z" style="fill:#fff"></path></clipPath><clipPath id="freepik--clip-path-9--inject-2"><path d="M403.81,351.33c-10,18.74-89,19.62-89,19.62s19.12,38.92,20.7,40.2,0,7.05,0,7.05,7.41,8.44,6.6,12.81a153,153,0,0,0-15.3,1.46c-6.06,1.06-18.72-2-23-1.83L300,426.51l-1.75-1.89,2-4.57s-6.49-10.33-6.49-11.77S288,397,288,397s-28.61-31.53-23.58-52.38c6.2-25.7,55.23-32.62,81.14-26.29l.08,0c1.09.46,13.08,5.49,22.77,8.9,4.85,1.71,9.13,3,11.17,3.13,25.92,1.59,30.93-6.5,30.93-6.5S413.84,332.58,403.81,351.33Z" style="fill:#757575"></path></clipPath><clipPath id="freepik--clip-path-10--inject-2"><path d="M219.89,325.17c-2.76,10.1-6.14,17.89-6.14,21.07,0,1.55-1.65,5.39-2.54,10.33-.18,1-.33,2.07-.43,3.17-1.28,14-1.48,33.93-2.65,38.54C206.42,405,203.36,420,203.36,420s-5.59,4.75-12.14-2c-5.5-5.64-3.81-56.22-2.63-79.49.15-3.19.3-5.86.42-7.84L186,293l8.86-3.13.54-.19,4.48-1.59,6.5-2.3s15.43-2.09,16.66,9.48C224.18,306,222.26,316.45,219.89,325.17Z" style="fill:#FFC100"></path></clipPath><clipPath id="freepik--clip-path-11--inject-2"><path d="M233.29,219a79.93,79.93,0,0,0-8,6.23c-1.16,1-2,1.67-2,1.67a97.92,97.92,0,0,1-7.87,31.47H179.86c-11.15-23.2-7-31.91-8.59-34.41a10.44,10.44,0,0,0-2.22-2.18,59.2,59.2,0,0,0-6.71-4.3s-.26-3.68,4.48-8.08,17.41-8.52,30.56-8.52c16.92,0,26.56,4,29.31,7.38A58.78,58.78,0,0,1,233.29,219Z" style="fill:#bfbfbf"></path></clipPath><clipPath id="freepik--clip-path-12--inject-2"><path d="M202.18,235.16h-9.77a1.35,1.35,0,0,1-1.34-1.2L189,214.23a1.33,1.33,0,0,1,1.33-1.48h13.93a1.34,1.34,0,0,1,1.33,1.48L203.51,234A1.34,1.34,0,0,1,202.18,235.16Z" style="fill:#263238"></path></clipPath><clipPath id="freepik--clip-path-13--inject-2"><path d="M295.81,289.45v11.07s-3.16,2.5-4.22,2.63c-.22,0-1,.05-2,.05-3.86,0-11.78-.05-11.78-.05s-6-15.39-4.81-15.8,14.06-3.4,16.62-2.92a6.51,6.51,0,0,1,2.56,1.37A26.84,26.84,0,0,1,295.81,289.45Z" style="fill:#fff"></path></clipPath><clipPath id="freepik--clip-path-14--inject-2"><path d="M95.42,167.54H86.79a.49.49,0,0,1-.49-.42l-3.36-21a.47.47,0,0,1,.11-.41.49.49,0,0,1,.38-.17H98.78a.49.49,0,0,1,.49.58l-3.36,21A.5.5,0,0,1,95.42,167.54Zm-8.2-1H95l3.2-20H84Z" style="fill:#263238;clip-path:url(#freepik--clip-path--inject-2)"></path></clipPath><clipPath id="freepik--clip-path-15--inject-2"><path d="M198.51,422.14c-2.16,0-4.83-.85-7.65-3.73-6-6.17-3.64-62.69-2.77-79.87.15-3.19.3-5.86.42-7.84l-3-37.64a.49.49,0,0,1,.33-.51l20.38-7.21.1,0c.35,0,8.45-1.09,13.48,2.86a10,10,0,0,1,3.75,7.07c.95,8.9-.08,18.73-3.16,30.06h0c-1.18,4.34-2.46,8.18-3.58,11.56-1.42,4.27-2.54,7.64-2.54,9.38a17,17,0,0,1-.87,3.75,61.87,61.87,0,0,0-1.68,6.67c-.19,1.06-.33,2.11-.42,3.13-.57,6.21-.93,13.69-1.25,20.29-.4,8.43-.75,15.71-1.42,18.32-1.68,6.64-4.73,21.58-4.76,21.73a.46.46,0,0,1-.17.28A8.67,8.67,0,0,1,198.51,422.14Zm-12-128.78,3,37.33c-.12,2.05-.27,4.72-.42,7.9-1.78,35.19-2.07,74.45,2.49,79.12,5.69,5.84,10.47,2.69,11.33,2,.35-1.71,3.14-15.33,4.74-21.59.63-2.52,1-9.75,1.38-18.13.32-6.61.68-14.1,1.25-20.34.1-1,.24-2.12.44-3.21a60.6,60.6,0,0,1,1.7-6.78,17.06,17.06,0,0,0,.83-3.46c0-1.9,1.09-5.17,2.59-9.7,1.12-3.37,2.39-7.19,3.57-11.5h0c3-11.21,4.07-20.92,3.12-29.7a9,9,0,0,0-3.36-6.38c-4.51-3.54-12-2.74-12.68-2.66Zm33.37,31.81h0Z" style="fill:#263238;clip-path:url(#freepik--clip-path-10--inject-2)"></path></clipPath><clipPath id="freepik--clip-path-16--inject-2"><path d="M215.45,258.86H179.86a.5.5,0,0,1-.45-.28c-8.12-16.9-8.16-26-8.18-31,0-1.7,0-2.83-.38-3.4a9.78,9.78,0,0,0-2.11-2.06,57.9,57.9,0,0,0-6.64-4.25.49.49,0,0,1-.26-.4c0-.16-.22-4,4.64-8.49,4.53-4.19,16.9-8.65,30.9-8.65,16.2,0,26.59,3.8,29.7,7.56a60.28,60.28,0,0,1,6.66,10.85.49.49,0,0,1-.2.64,86.81,86.81,0,0,0-7.95,6.18l-1.79,1.53a99.53,99.53,0,0,1-7.9,31.45A.5.5,0,0,1,215.45,258.86Zm-35.28-1h35a99.57,99.57,0,0,0,7.69-31,.51.51,0,0,1,.17-.34s.79-.69,2-1.67a93.06,93.06,0,0,1,7.69-6,56.59,56.59,0,0,0-6.34-10.23c-2.2-2.67-10.78-7.2-28.92-7.2-13.75,0-25.83,4.32-30.22,8.39-3.78,3.5-4.26,6.53-4.31,7.42a57,57,0,0,1,6.51,4.2,10.69,10.69,0,0,1,2.33,2.3c.53.81.53,2,.54,3.94C172.25,232.42,172.29,241.35,180.17,257.86Z" style="fill:#263238;clip-path:url(#freepik--clip-path-11--inject-2)"></path></clipPath><clipPath id="freepik--clip-path-17--inject-2"><path d="M202.18,235.66h-9.77a1.83,1.83,0,0,1-1.83-1.65l-2.08-19.73a1.82,1.82,0,0,1,.46-1.42,1.84,1.84,0,0,1,1.37-.61h13.93a1.8,1.8,0,0,1,1.36.61,1.86,1.86,0,0,1,.47,1.42L204,234A1.84,1.84,0,0,1,202.18,235.66Zm-11.85-22.41a.86.86,0,0,0-.84.93l2.08,19.73a.85.85,0,0,0,.84.75h9.77a.84.84,0,0,0,.83-.75l2.08-19.73a.84.84,0,0,0-.83-.93Z" style="fill:#263238;clip-path:url(#freepik--clip-path-12--inject-2)"></path></clipPath><clipPath id="freepik--clip-path-18--inject-2"><path d="M287.16,303.71c-4,0-9.29-.06-9.36-.06a.51.51,0,0,1-.46-.32c-1.32-3.39-5.59-14.59-4.9-16.09a.74.74,0,0,1,.4-.36c1.23-.44,14.22-3.44,16.87-2.94a6.79,6.79,0,0,1,2.78,1.47,26.58,26.58,0,0,1,3.71,3.73.51.51,0,0,1,.11.31v11.07a.49.49,0,0,1-.19.39c-.55.43-3.33,2.6-4.47,2.74-.37.05-1.67.05-2.06.05Zm-9-1.06c1.56,0,8.08.08,11.43.05,1.1,0,1.78,0,1.94-.05a15.09,15.09,0,0,0,3.79-2.37V289.63a26.75,26.75,0,0,0-3.44-3.44,6.15,6.15,0,0,0-2.34-1.27c-2.26-.41-14.21,2.25-16.19,2.85C273.24,289.08,275.64,296.18,278.15,302.65Zm-5-14.83Z" style="fill:#263238;clip-path:url(#freepik--clip-path-13--inject-2)"></path></clipPath><clipPath id="freepik--clip-path-19--inject-2"><path d="M279.68,305.56a33.37,33.37,0,0,1-10.35-1.47.5.5,0,0,1-.33-.44l-.09-1.49-1.52-24.08h-.72a.51.51,0,0,1-.47-.68l1.19-3a.52.52,0,0,1,.38-.31A37.6,37.6,0,0,1,291,276.87a.51.51,0,0,1,.26.44v3a.5.5,0,0,1-.5.5h-1.37l-4.67,24.12a.51.51,0,0,1-.43.41A43.15,43.15,0,0,1,279.68,305.56Zm-9.7-2.31a36.6,36.6,0,0,0,13.87,1.09l4.68-24.17a.49.49,0,0,1,.49-.4h1.28v-2.15A36.78,36.78,0,0,0,268.22,275l-.82,2.09h.46a.51.51,0,0,1,.5.47Z" style="fill:#263238;clip-path:url(#freepik--clip-path-2--inject-2)"></path></clipPath><clipPath id="freepik--clip-path-20--inject-2"><path d="M330.61,313.93c-7.72,0-17.07-2.49-25.16-6.24a58.33,58.33,0,0,1-11.19-6.64.53.53,0,0,1-.09-.71.52.52,0,0,1,.71-.09,57.31,57.31,0,0,0,11,6.54c13.54,6.26,30.61,9,37,2.19,8.07-8.61,13.69-43,14-45.17l-8.33-31.16c-1.88,2.77-7.52,11.18-9.12,14.42-.87,1.76-2.43,7.75-3.95,13.55-2.33,9-3.93,14.93-5,16.27a18,18,0,0,0-2.7,6.25.56.56,0,0,1,0,.12l-5.1,10.67a.5.5,0,0,1-.56.27L294.46,288a.54.54,0,0,1-.26-.16c-1.49-1.68-4-4.33-4.8-4.73-.54-.27-2.77-.11-4.4,0a12.22,12.22,0,0,1-3.67,0c-1.73-.7-4-1.19-4.39-.76-.06.07-.07.37.31,1,1.82,3.08,8.11,3.46,8.18,3.46a.48.48,0,0,1,.44.34c1.14,3.28,2.82,7,3.55,7.33a.5.5,0,0,1-.4.92c-1.39-.61-3.28-5.63-4-7.62-1.42-.12-6.8-.79-8.65-3.93q-.84-1.44-.21-2.19c1.09-1.26,5.07.3,5.52.49a16.87,16.87,0,0,0,3.23-.08c2.5-.18,4.19-.27,4.92.09,1.15.58,4.28,4.05,5,4.85L322,293.13l4.9-10.25a18.64,18.64,0,0,1,2.89-6.61c1-1.28,3-9,4.82-15.9,1.59-6.12,3.1-11.9,4-13.74,1.95-3.95,9.49-15,9.81-15.45a.5.5,0,0,1,.89.15l8.64,32.32a.5.5,0,0,1,0,.21c-.23,1.49-5.81,36.73-14.32,45.8C340.82,312.66,336.13,313.93,330.61,313.93Z" style="fill:#263238;clip-path:url(#freepik--clip-path-3--inject-2)"></path></clipPath><clipPath id="freepik--clip-path-21--inject-2"><path d="M340.71,304.08a1.25,1.25,0,0,1-1-.57c-3.13-4.13-18.14-13.54-18.3-13.63a.54.54,0,0,1-.23-.4c-.23-4.31,5.1-12.14,5.75-12.8.68-1.05,8.27-25.6,8.94-29.52s10.43-14.7,10.84-15.16a.52.52,0,0,1,.46-.15.51.51,0,0,1,.38.3c.06.16,6.28,15.73,6.28,28.34,0,11.41-8.33,42.05-12.69,43.52A1.53,1.53,0,0,1,340.71,304.08Zm-18.56-14.91c2,1.25,15.28,9.69,18.34,13.74.15.21.23.17.31.15,3.26-1.09,12-30,12-42.57,0-10.84-4.69-24-5.92-27.21-3.56,4-9.6,11.33-10.06,14.05-.55,3.28-8.29,29.12-9.2,30C327.09,277.92,322.16,285.15,322.15,289.17Z" style="fill:#263238;clip-path:url(#freepik--clip-path-4--inject-2)"></path></clipPath><clipPath id="freepik--clip-path-22--inject-2"><path d="M296.32,452.55a66.59,66.59,0,0,1-8.81-.47,22,22,0,0,1-4-.88.51.51,0,0,1-.34-.47v-1.88c-.82-2.52-.81-4.44,0-6,1.38-2.67,5-4.22,10.28-5.86A29.25,29.25,0,0,0,304,431.44a23.58,23.58,0,0,0,7.38-12,.49.49,0,0,1,.48-.36h0c1,0,23.95.51,27.53,5.58s3.17,26.34,3.15,27.25a.51.51,0,0,1-.5.49h-9.15c-5.85,0-8.81-1.56-9.56-2-1.43.3-9.86,2-15.8,2-1.4,0-3,0-4.78.08C300.79,452.5,298.56,452.55,296.32,452.55Zm-12.19-2.19a22.21,22.21,0,0,0,3.52.73,102.75,102.75,0,0,0,15.13.35c1.76,0,3.39-.08,4.8-.08,6.37,0,15.7-2,15.79-2a.48.48,0,0,1,.4.09s2.79,2,9.17,2h8.65c0-3.27.09-21.83-3-26.16-2.67-3.8-19.56-5-26.34-5.16a24.37,24.37,0,0,1-7.59,12.14,30.22,30.22,0,0,1-11,5.71c-4.93,1.52-8.46,3-9.68,5.36-.7,1.36-.68,3.06.07,5.34a.45.45,0,0,1,0,.16Z" style="fill:#263238;clip-path:url(#freepik--clip-path-5--inject-2)"></path></clipPath><clipPath id="freepik--clip-path-23--inject-2"><path d="M358.94,186.36l-.13,0a133.79,133.79,0,0,0-22.24-3.6c-2.55-.21-5-.32-7.37-.35a.5.5,0,0,1,0-1c2.36,0,4.86.15,7.43.35a137.6,137.6,0,0,1,21.79,3.47V172.63c-1-1.19-8.49-10-16.25-9.83l-3.19.06c-7.37.13-16.53.3-17.95,2.31-1.74,2.44-6.58,14.53-6.63,14.66a.5.5,0,1,1-.92-.38c.2-.5,4.93-12.32,6.73-14.86S330.61,162,339,161.86l3.19-.06c8.8-.17,16.83,9.91,17.16,10.34a.51.51,0,0,1,.11.31v13.41a.49.49,0,0,1-.2.4A.51.51,0,0,1,358.94,186.36Z" style="fill:#263238;clip-path:url(#freepik--clip-path-6--inject-2)"></path></clipPath><clipPath id="freepik--clip-path-24--inject-2"><path d="M329.21,182.39h-.06a72.91,72.91,0,0,0-14.87-.09h-.13c-4.2-.55-18-2.42-19.09-3.81a.63.63,0,0,1,0-.77c1.18-1.68,21.38-.62,34.32,3.7a.49.49,0,0,1,.33.58A.49.49,0,0,1,329.21,182.39Zm-32.76-4.22c2.3.82,10.31,2.16,17.77,3.13a64.54,64.54,0,0,1,10.24-.27C312.93,178.12,299.65,177.67,296.45,178.17Z" style="fill:#263238;clip-path:url(#freepik--clip-path-7--inject-2)"></path></clipPath><clipPath id="freepik--clip-path-25--inject-2"><path d="M387.12,341.71h-.42c-10.2-.26-22-6.75-32.41-12.49-7.12-3.91-13.27-7.3-17.37-7.8a8.15,8.15,0,0,1-5.82-3c-1.55-2.1-2-5.23-1.26-9.32,1.85-10.66,11-25,12.15-26.81A97.63,97.63,0,0,1,339.45,264c-.54-11.94,1.17-22.27,5.08-30.68,0-.9.7-5.94,10.72-13.75l11.17-7.31a.51.51,0,0,1,.53,0c.16.1,16,9.77,25.49,21.42,9.05,11.17,24,84.35,18.48,90.45C410.2,325.42,400.62,341.71,387.12,341.71ZM366.7,213.31l-10.87,7.11c-10.31,8.05-10.3,13-10.3,13a.46.46,0,0,1,0,.23c-3.87,8.29-5.57,18.49-5,30.32A95.62,95.62,0,0,0,343,282.24a.49.49,0,0,1-.06.41c-.1.15-10.2,15.48-12.13,26.61-.66,3.81-.3,6.68,1.08,8.55a7.11,7.11,0,0,0,5.14,2.61c4.29.53,10.52,4,17.73,7.93,10.31,5.68,22,12.11,32,12.36h.39c13.18,0,22.88-16.92,23-17.09a1,1,0,0,1,.08-.11c2.18-2.21.54-19.88-3.88-42-3.57-17.84-9.54-40.89-14.62-47.16C383,223.65,368.82,214.63,366.7,213.31Z" style="fill:#263238;clip-path:url(#freepik--clip-path-8--inject-2)"></path></clipPath><clipPath id="freepik--clip-path-26--inject-2"><path d="M323.68,433.2a93.3,93.3,0,0,1-12.1-1.23,55.47,55.47,0,0,0-7.76-.83.53.53,0,0,1-.39-.16l-5.6-6a.51.51,0,0,1-.09-.54l1.92-4.33c-1.36-2.17-6.43-10.36-6.43-11.81,0-.81-2.86-6.23-5.63-11-1.6-1.78-28.65-32.11-23.66-52.8,1.7-7,6.58-13,14.51-17.87,18.48-11.27,48.7-13.32,67.24-8.79l.15.06c.52.22,12.76,5.37,22.75,8.89,5.46,1.93,9.27,3,11,3.1,25.19,1.55,30.43-6.19,30.48-6.27a.49.49,0,0,1,.47-.23.52.52,0,0,1,.42.32c.14.37,3.28,9.15-6.74,27.89-9.62,18-79.88,19.72-88.65,19.87,7.62,15.49,19,38.26,20.22,39.32,1.63,1.32.6,5.88.23,7.31,1.16,1.36,7.32,8.81,6.54,13a.5.5,0,0,1-.47.41A152.7,152.7,0,0,0,326.88,433,18.29,18.29,0,0,1,323.68,433.2Zm-19.56-3.07a65.57,65.57,0,0,1,7.6.85c5.06.73,11.35,1.63,15,1a149.88,149.88,0,0,1,15-1.45c.27-4.19-6.47-11.92-6.54-12a.48.48,0,0,1-.1-.46c.62-2.27,1.09-5.79.17-6.53-1.62-1.31-18.88-36.38-20.84-40.37a.51.51,0,0,1,0-.48.49.49,0,0,1,.42-.24c.79,0,78.81-1.09,88.58-19.36h0c8-15,7.4-23.52,6.9-26.16-2,2.06-9.39,7.24-30.71,5.93-1.87-.11-5.68-1.17-11.31-3.16-10-3.52-22.28-8.69-22.79-8.91-17.95-4.39-48.47-2.32-66.49,8.66-7.69,4.69-12.42,10.49-14.05,17.26-4.91,20.35,23.18,51.61,23.46,51.92l.06.09c1,1.67,5.79,10.06,5.79,11.56,0,.82,3.27,6.5,6.41,11.5a.52.52,0,0,1,0,.47l-1.89,4.27,5.22,5.61Zm38,.88h0Z" style="fill:#263238;clip-path:url(#freepik--clip-path-9--inject-2)"></path></clipPath></defs><g id="freepik--background-simple--inject-2"><path d="M438.38,203c-18.19-20.12-48.67-22.37-72.37-35.56C325.22,144.73,309.4,93,272.3,64.72c-23.44-17.89-55.1-24.82-83.41-20.9-40.19,5.57-78,32.5-89.36,72a99.81,99.81,0,0,0-3.44,35.41c1.82,23.56,6.89,47.41,2.11,70.54-5.27,25.49-21.86,47-31.77,71.09-12.33,30-14,63.6-8.76,95.58,3.6,21.82,10.78,43.84,25.76,60.11,1.13,1.22,2.31,2.4,3.51,3.54H250.55c10.27-13.09,18.05-28.58,27.08-42.32,22.72-34.59,59.09-59.24,98.83-70.81,17.8-5.18,37.08-8.26,51.38-20.06,14.72-12.13,21.48-31.49,24.4-50.34C455.79,245.69,453.87,220.11,438.38,203Z" style="fill:#FFC100"></path><path d="M438.38,203c-18.19-20.12-48.67-22.37-72.37-35.56C325.22,144.73,309.4,93,272.3,64.72c-23.44-17.89-55.1-24.82-83.41-20.9-40.19,5.57-78,32.5-89.36,72a99.81,99.81,0,0,0-3.44,35.41c1.82,23.56,6.89,47.41,2.11,70.54-5.27,25.49-21.86,47-31.77,71.09-12.33,30-14,63.6-8.76,95.58,3.6,21.82,10.78,43.84,25.76,60.11,1.13,1.22,2.31,2.4,3.51,3.54H250.55c10.27-13.09,18.05-28.58,27.08-42.32,22.72-34.59,59.09-59.24,98.83-70.81,17.8-5.18,37.08-8.26,51.38-20.06,14.72-12.13,21.48-31.49,24.4-50.34C455.79,245.69,453.87,220.11,438.38,203Z" style="fill:#fff;opacity:0.7000000000000001"></path></g><g id="freepik--Plants--inject-2"><path d="M175.87,428.42c-1.77,0-3.49-2.93-4.65-5.51A4.86,4.86,0,0,1,171,420a6,6,0,0,0-.48-4c-.19-.39-.36-.73-.49-1-.43.4-1.29,1-3.34.71-1.86-.24-2.15-.27-2.37-.62a.75.75,0,0,1,0-.7c.1-.3.3-.92-1.09-2.55-1.56-1.81-1.65-1.92-1.46-2.33a.68.68,0,0,1,.7-.34c.39,0,.92,0,1.1-1.44.12-.93,0-1.12,0-1.12s-.83.35-1.19.56c-.79.45-1.6.91-2.29.65-1.2-.44-.86-1.9-.57-3.19a5.81,5.81,0,0,0,.25-1.84c-.21-1.31,1.68-2.16,3.08-2.6-1.19-.76-2.91-2-3.08-3.15a25.55,25.55,0,0,0-1.08-3.57c-1-.45-5-2.56-4.5-5.26.21-1.05.27-1.37.64-1.53a.87.87,0,0,1,.85.17,5.15,5.15,0,0,0,3.37.62c.51,0,.86-.17.92-.34.29-.75-1.81-3-3.07-4.35a15.3,15.3,0,0,1-2.15-2.57l-.53-.94c-.94-1.61-2-3.45-.49-5.27a6.82,6.82,0,0,1,1.47-1.33c.9-.65,2-1.45,4.65-5.37,1.3-1.95,1.26-2.48,1.18-2.62-.19-.34-1.66-.28-3-.23a26.2,26.2,0,0,1-6.85-.37c-4.49-.95-4.48-4.77-4.47-7.84,0-2.07,0-3.86-1.24-4.39-.43-.19-.79-.35-1.07-.46-.07.53-.46,1.1-1.74,1.52-1.64.55-1.9.64-2.42,0-.26-.31-.81-.95-3.47-1.78-1.84-.57-2.67-1.12-2.88-1.88-.25-.93.52-1.78,1.59-3a18.85,18.85,0,0,0,2.81-3.72l-1.82-3.6a12.52,12.52,0,0,0-2.87-4.31c-.63-.63-1.42-1.55-1.06-2.31a1,1,0,0,1,.5-.48,5.74,5.74,0,0,1-1-3.21v-.18a17,17,0,0,1-5.26,2c-2,.45-3.22.33-4-.36-1-.89-.73-2.45-.51-4a15.34,15.34,0,0,0,.19-1.93,6.9,6.9,0,0,0-.3-2.56.51.51,0,0,1-.19-.48l.49-3a1.35,1.35,0,0,0-.13-1c-.33-.45-1.25-.57-2.31-.7a11.19,11.19,0,0,1-3.18-.75c-1.95-.89-2-1.64-1.85-2.47a.77.77,0,0,0-.1-.73,1.08,1.08,0,0,1-.19-.94c.3-1.28,2.81-2.63,3.31-2.89l4.23-2.11,1.13-.57a5.29,5.29,0,0,1-2.95-3.36,5.66,5.66,0,0,0-.69-1.55,4.23,4.23,0,0,0-.35.44,2.59,2.59,0,0,1-2.41,1.45,1.75,1.75,0,0,1-1.27-.74c-.54-.87-.11-2.19.34-3.57a15.38,15.38,0,0,0,.51-1.82c.22-1.22.79-1.43,1.45-1.56s1.15-.23,1.9-1.78a2.73,2.73,0,0,0,.44-1.93c-.19-.46-.93-.74-1.87-1.08-.49-.19-1-.39-1.64-.66-1.79-.83-2.54-.4-3.9.38a16.31,16.31,0,0,1-1.88.95c-2.47,1-5.31,5.12-5.34,5.16a.5.5,0,0,1-.63.16,18.54,18.54,0,0,1-3.8-2.48,3,3,0,0,1-.71-3.3c-.42-.89-1.54-2.65-2.85-2.53a9.09,9.09,0,0,1-2.81-.34,8.83,8.83,0,0,0-4.23-.23,1.92,1.92,0,0,1-1.82-.35c-1.15-1.06-.74-3.8-.23-7.28.08-.58.17-1.19.25-1.8s0-1.21-.22-1.36c-.83-.54-3.75,1.26-5.33,2.23a15.63,15.63,0,0,1-2.08,1.18,1.42,1.42,0,0,1-1.21-.07c-1.18-.65-1.67-3-2.1-5.06-.09-.44-.18-.85-.26-1.2a5.2,5.2,0,0,1,.46-2.74c.75-2.25,1.61-4.81-1.57-7.47-4.62-3.88-11.28,0-11.35,0a.48.48,0,0,1-.68-.17.5.5,0,0,1,.17-.69c.3-.17,7.33-4.28,12.5.05,3.7,3.1,2.6,6.39,1.88,8.56a4.63,4.63,0,0,0-.44,2.18c.09.36.17.78.27,1.24.31,1.48.83,4,1.6,4.38a.38.38,0,0,0,.37,0,14.75,14.75,0,0,0,1.92-1.09c2.85-1.76,5.13-3,6.4-2.22.6.39.82,1.17.67,2.34-.09.61-.18,1.22-.26,1.81-.42,2.8-.84,5.69-.08,6.39.07.07.27.26.91.11a10,10,0,0,1,4.69.23,8.32,8.32,0,0,0,2.5.33c2.44-.23,3.88,3.18,3.94,3.32a.53.53,0,0,1,0,.41,2.08,2.08,0,0,0,.4,2.36,16.13,16.13,0,0,0,3.17,2.12c.79-1.07,3.22-4.2,5.53-5.16a15.08,15.08,0,0,0,1.76-.89c1.43-.82,2.57-1.46,4.82-.42.55.25,1.09.45,1.56.63,1.18.43,2.1.77,2.45,1.64a3.39,3.39,0,0,1-.46,2.74c-1,2-2,2.2-2.6,2.33-.44.08-.55.1-.67.76a14.32,14.32,0,0,1-.54,1.95c-.34,1.05-.73,2.25-.44,2.73a.72.72,0,0,0,.56.28c.59.08,1-.38,1.46-1.05.35-.48.71-1,1.28-.9s1,.68,1.52,2.28a4.35,4.35,0,0,0,2.67,2.88c.36.15.73.3.74.72s-.26.63-2.09,1.55l-4.22,2.11c-1,.53-2.66,1.61-2.8,2.22,0,.07,0,.09,0,.11a1.78,1.78,0,0,1,.29,1.5c-.08.45-.13.75,1.27,1.39a10,10,0,0,0,2.9.66c1.29.17,2.4.31,3,1.1a2.31,2.31,0,0,1,.31,1.81l-.45,2.73a7,7,0,0,1,.46,3.1,15.21,15.21,0,0,1-.2,2.09c-.19,1.26-.38,2.56.2,3.09s1.5.47,3.07.11a15.94,15.94,0,0,0,5-1.9c.47-.28.78-.46,1.13-.26s.36.58.36,1.31a5.08,5.08,0,0,0,1.3,3.22.5.5,0,0,1-.4.85,1,1,0,0,0-.48.07,3.38,3.38,0,0,0,.88,1.15,13,13,0,0,1,3.08,4.64l1.91,3.76a.45.45,0,0,1,0,.45,19.26,19.26,0,0,1-3.08,4.16c-.76.84-1.47,1.63-1.37,2,.07.25.51.65,2.21,1.19,2.94.91,3.59,1.67,3.94,2.07a.45.45,0,0,0,.09.1l1.26-.42c1.16-.39,1.09-.74,1-1a.65.65,0,0,1,.18-.68c.32-.26.47-.19,2.29.59s1.85,3,1.84,5.32c0,3,0,6.07,3.68,6.86a25.68,25.68,0,0,0,6.6.35c2-.09,3.38-.15,3.87.73.41.72.06,1.75-1.22,3.67-2.73,4.06-3.93,4.93-4.9,5.62a6.25,6.25,0,0,0-1.28,1.15c-1,1.23-.44,2.38.58,4.14.19.32.38.64.55,1a16.79,16.79,0,0,0,2,2.36c2.29,2.45,3.76,4.15,3.28,5.39-.23.57-.83.9-1.79,1a6.09,6.09,0,0,1-3.82-.68c0,.17-.08.39-.13.63-.37,1.83,2.85,3.68,4.12,4.24a.48.48,0,0,1,.26.28,26.13,26.13,0,0,1,1.2,3.95c.13.78,2.18,2.25,3.6,3.05a.5.5,0,0,1,.25.51.49.49,0,0,1-.38.41c-1.71.39-3.55,1.24-3.46,1.79a6.82,6.82,0,0,1-.26,2.21c-.2.85-.44,1.9-.07,2s1-.32,1.45-.59c.84-.48,1.63-.93,2.26-.51s.56,1.31.46,2.06c-.19,1.58-.86,2.09-1.5,2.25.22.27.54.64.93,1.09,1.41,1.66,1.51,2.62,1.33,3.32l1.51.2c1.87.24,2.4-.29,2.69-.58a.76.76,0,0,1,.69-.31c.41.06.55.34,1.23,1.69a7,7,0,0,1,.57,4.63,3.92,3.92,0,0,0,.11,2.34c1.45,3.21,3,5.16,3.91,4.9a.51.51,0,0,1,.63.33.5.5,0,0,1-.33.62A1.6,1.6,0,0,1,175.87,428.42Z" style="fill:#263238"></path><path d="M418.45,220.06a1.84,1.84,0,0,1-.33,0,1.54,1.54,0,0,1-1.07-.69,2.53,2.53,0,0,1-.24-1.65,1.54,1.54,0,0,0-.1-1c-.27-.33-.74-.17-1.7.25s-2,.89-2.9.17a2.39,2.39,0,0,1-.59-2.2,4.54,4.54,0,0,0,0-1,1.51,1.51,0,0,0-1.33-1.18c-.75,0-1.24.46-1.8,1-.83.84-1.86,1.89-3.9.79-1.64-.89-1.75-2.76-1.85-4.42-.12-2.16-.32-3-1.77-3.06s-2.66,1.07-3.82,2.19a3.38,3.38,0,0,0-.89,1.41.52.52,0,0,1-.34.34.54.54,0,0,1-.47-.11,4.23,4.23,0,0,0-.46-.38c-.94-.76-2.24-1.79-2.18-2.85.08-1.66.88-4.64,2.69-5.55.31-.15.63-.27.95-.4a5.19,5.19,0,0,0,1.5-.78,1.62,1.62,0,0,0,.55-1.16.7.7,0,0,0-.24-.54c-.43-.35-.94-.08-1.93.56a6.51,6.51,0,0,1-1.61.84,4.84,4.84,0,0,1-1.59.14,4.36,4.36,0,0,0-1,0,2.44,2.44,0,0,0-1.94,1.87.49.49,0,0,1-.27.34.5.5,0,0,1-.43,0,3.6,3.6,0,0,1-1.89-2.37,3.71,3.71,0,0,1,.16-2.47c-.91-.57-1.19-1.8-1.43-2.82l-.1-.41a2.22,2.22,0,0,0-1.3-1.51.43.43,0,0,0-.47.13l-1,1.59a.48.48,0,0,1-.46.23,20.62,20.62,0,0,1-4.75-3.87c-1-2.17-.1-5.36.59-7.7-2.8.38-8.86.68-10.12-3.73a8,8,0,0,1-.2-1,2.24,2.24,0,0,0-1.72-2.33,4,4,0,0,1-1.47-.9,3.93,3.93,0,0,1-.67-3.2A40.21,40.21,0,0,1,368,159.92a1.61,1.61,0,0,1,1.37-1.09c1.3-.08,2.89,1.58,5.15,5.34l.16.26a1.41,1.41,0,0,0,1.17.16.68.68,0,0,0,.48-.44c.12-.41-.14-.85-.44-1.37-.11-.21-.23-.41-.33-.62a7.65,7.65,0,0,1-.53-2.48,4.45,4.45,0,0,0-.78-2.62,4.63,4.63,0,0,0-1.19-.82,4.16,4.16,0,0,1-1.75-1.48,2.36,2.36,0,0,1-.07-2.12,5,5,0,0,1,3.21-2.56.5.5,0,0,1,.55.22,1.63,1.63,0,0,0,2.72-.27c.35-1-.58-1.73-2-2.77a5.76,5.76,0,0,1-2.32-2.37c-.44-1.3.41-5.57,2.16-6.83a1.83,1.83,0,0,1,2.31.06.48.48,0,0,1,.2.38c.05,1,.26,1.16.27,1.16.57.06,2-1.77,4.28-5.49,1-1.62,1.08-1.75,1.46-1.71h.15a1.2,1.2,0,0,0,.46,0c0-.06-.07-.24-.47-.7a4.8,4.8,0,0,1-.47-5c1.11-2.53,8.07-8.3,11.06-7.41.79.24,1.65,1,1.45,3.14a4.66,4.66,0,0,1,3.15,1.35c.23.22.45.45.68.68a5.84,5.84,0,0,0,2.08,1.62.48.48,0,0,0,.3.06s.06,0,.11-.1a.82.82,0,0,0,0-.63,3.88,3.88,0,0,0-.5-.62,4.59,4.59,0,0,1-.6-.75c-1.47-2.5,1.09-8.13,3.88-9.9,1.83-1.17,3.64-.75,4.95,1.15l.12.17c.69,1,1.41,2.06,2.44,2.17a1.8,1.8,0,0,0,1.4-.26c.45-.41.42-1.34.39-2.24a4.33,4.33,0,0,1,.28-2.22,6,6,0,0,1,2.41-2.13,4.84,4.84,0,0,0,2.29-2.18,12.79,12.79,0,0,0,.72-2.77A15.1,15.1,0,0,1,421,103a5.17,5.17,0,0,1,2.82-2.84,2.9,2.9,0,0,1,2.4.11.5.5,0,0,1,.15.77.68.68,0,0,0-.08.8,2.86,2.86,0,0,0,2.45,1.26c3.31-.21,3.83.55,4.39,1.82a4.47,4.47,0,0,0,1.65,2.09,5.8,5.8,0,0,0,.31-2.75c0-.32,0-.64,0-1a4.61,4.61,0,0,1,1.21-3.17,2.26,2.26,0,0,1,1.14-.6,2.8,2.8,0,0,1,1.09-1.86,3.76,3.76,0,0,1,3.43-.63c1.61.55,2.9,2.11,3.65,4.39a.51.51,0,0,1-.32.63.52.52,0,0,1-.64-.32c-.37-1.14-1.25-3.15-3-3.76a2.78,2.78,0,0,0-2.48.48,1.72,1.72,0,0,0-.72,1.49.52.52,0,0,1-.14.39.45.45,0,0,1-.38.15,1.25,1.25,0,0,0-.92.37,3.6,3.6,0,0,0-.9,2.45c0,.3,0,.6,0,.91a5.52,5.52,0,0,1-.76,3.78.5.5,0,0,1-.65.12,5.48,5.48,0,0,1-2.46-2.8c-.42-.94-.63-1.42-3.41-1.23a3.84,3.84,0,0,1-3.41-1.81,1.71,1.71,0,0,1-.13-1.3,2.07,2.07,0,0,0-1.11.11A4.17,4.17,0,0,0,422,103.4a13.71,13.71,0,0,0-.68,2.65,13.4,13.4,0,0,1-.79,3,5.75,5.75,0,0,1-2.69,2.64,5.27,5.27,0,0,0-2.05,1.77,3.81,3.81,0,0,0-.15,1.68c0,1.08.07,2.29-.71,3a2.61,2.61,0,0,1-2.18.52c-1.49-.16-2.42-1.51-3.17-2.59l-.11-.17c-1-1.46-2.22-1.76-3.59-.88-2.57,1.64-4.66,6.68-3.56,8.55a4,4,0,0,0,.47.58,3.82,3.82,0,0,1,.64.82,1.79,1.79,0,0,1,.08,1.53,1.14,1.14,0,0,1-.81.66,1.54,1.54,0,0,1-.86-.1,6.83,6.83,0,0,1-2.45-1.86c-.21-.22-.43-.44-.65-.65a3.65,3.65,0,0,0-3-1.07.48.48,0,0,1-.41-.15.49.49,0,0,1-.13-.43c.25-1.53,0-2.4-.67-2.61-2.32-.68-8.85,4.52-9.87,6.85a3.92,3.92,0,0,0,.31,4c.34.39,1.13,1.31.46,2a1.33,1.33,0,0,1-1.2.32c-.17.25-.47.73-.76,1.21-2.54,4.1-4.14,6.27-5.39,5.93-.74-.19-.93-1.07-1-1.82a.78.78,0,0,0-.94.07c-1.33,1-2.13,4.73-1.81,5.7.22.63,1.1,1.26,2,1.87,1.42,1,3,2.18,2.4,3.93a2.46,2.46,0,0,1-2.12,1.53,2.55,2.55,0,0,1-2.15-.75,3.89,3.89,0,0,0-2.23,1.88,1.35,1.35,0,0,0,0,1.24,3.21,3.21,0,0,0,1.36,1.09,5.45,5.45,0,0,1,1.44,1,5.15,5.15,0,0,1,1,3.19,6.33,6.33,0,0,0,.44,2.16c.08.18.19.36.29.54a2.75,2.75,0,0,1,.53,2.14,1.65,1.65,0,0,1-1.13,1.12,2.38,2.38,0,0,1-2.15-.36c-.09-.07-.12-.11-.35-.5-2.66-4.44-3.81-4.88-4.23-4.85-.07,0-.29,0-.52.51a39.41,39.41,0,0,0-3.44,12.41,3.13,3.13,0,0,0,.41,2.42,3.44,3.44,0,0,0,1.13.66,3.17,3.17,0,0,1,2.31,3.09,6.71,6.71,0,0,0,.19.89c1.16,4.09,7.77,3.24,9.76,2.89a.51.51,0,0,1,.46.15.48.48,0,0,1,.11.47l-.21.73c-.6,2.07-1.52,5.2-.65,7a26.28,26.28,0,0,0,3.73,3.11l.79-1.24a1.46,1.46,0,0,1,1.51-.49,3.21,3.21,0,0,1,2,2.24l.11.43c.28,1.24.54,2.13,1.27,2.31a.46.46,0,0,1,.35.31.5.5,0,0,1-.05.46,2.61,2.61,0,0,0-.32,2.17,2.83,2.83,0,0,0,.86,1.41,3.44,3.44,0,0,1,2.54-2,5.67,5.67,0,0,1,1.23,0,4.38,4.38,0,0,0,1.27-.09,6.27,6.27,0,0,0,1.36-.73c.92-.6,2.06-1.34,3.1-.5a1.7,1.7,0,0,1,.61,1.31,2.65,2.65,0,0,1-.9,1.93,6.07,6.07,0,0,1-1.79.95,9.28,9.28,0,0,0-.86.37c-1.34.67-2.07,3.2-2.14,4.7,0,.54,1.2,1.53,1.77,2a4.46,4.46,0,0,1,.87-1.17c1.3-1.25,2.71-2.47,4.48-2.47h.06c2.52,0,2.65,2.24,2.75,4,.09,1.53.17,3,1.33,3.6,1.37.74,1.9.2,2.7-.61a3.23,3.23,0,0,1,2.57-1.32,2.48,2.48,0,0,1,2.27,2,5.07,5.07,0,0,1,0,1.23c0,.69-.05,1.12.24,1.36s1,.07,1.85-.31,2.12-.93,2.89,0a2.3,2.3,0,0,1,.32,1.75,1.78,1.78,0,0,0,.08,1,.61.61,0,0,0,.4.24,1.15,1.15,0,0,0,.86-.22,3.7,3.7,0,0,0,1-1.7.51.51,0,0,1,.57-.32,3.51,3.51,0,0,1,2.51,2.13.5.5,0,1,1-.93.36,2.54,2.54,0,0,0-1.37-1.38,3.83,3.83,0,0,1-1.13,1.69A2.15,2.15,0,0,1,418.45,220.06Z" style="fill:#263238"></path><path d="M384.14,205.25h0a.52.52,0,0,1-.49-.51,5.91,5.91,0,0,0-.79-3.07,2.78,2.78,0,0,1-1,.94,3,3,0,0,1-2.71.18c-.88-.41-1.3-1.37-1.22-2.75a5.46,5.46,0,0,1-2.89.07l-7.95-2a5.77,5.77,0,0,0-.51,1.75c-.07.36-.13.71-.22,1.05-.38,1.4-1.59,2.67-2.94,2.36a3.22,3.22,0,0,1-1.27-.72l-.24-.19a5,5,0,0,0-5.93.12.5.5,0,0,1-.51.08.51.51,0,0,1-.31-.41,3.56,3.56,0,0,0-1.37-2.39,3.85,3.85,0,0,0-2.36-.84,12.66,12.66,0,0,0-1.07,4.14.52.52,0,0,1-.23.39.51.51,0,0,1-.45,0,8.69,8.69,0,0,0-6.17,0,.5.5,0,0,1-.68-.41l-.75-6.51c-.07-.62-.19-1.22-.57-1.44a1.91,1.91,0,0,0-1-.08c-.22,0-.44,0-.66,0-2.08,0-3.57-1.93-4.29-5.46a.6.6,0,0,1,0-.19c.24-1.33,1.53-1.63,2.66-1.89a3.84,3.84,0,0,0,2-.88,3.14,3.14,0,0,0,.36-2.23c0-.19,0-.38,0-.57-.07-2.78,1.34-4.47,2.7-6.11a9.26,9.26,0,0,0,2.44-4.36,3.35,3.35,0,0,1,1.34-2,8.57,8.57,0,0,0-5.48.06.5.5,0,0,1-.36,0c-1.2-.5-1.33-2.06-.84-3.29.08-.2.17-.4.26-.61a3.13,3.13,0,0,0,.46-1.93,3.19,3.19,0,0,0-1.05-1.42l-.27-.26a11.67,11.67,0,0,1-2.9-8,5,5,0,0,1,1.86-3.77c.88-.66,2.63-.41,4.66-.11,1.83.26,4.1.59,4.83-.09a1,1,0,0,0,.25-.88,2.75,2.75,0,0,0-.65-1.25,4.26,4.26,0,0,1-.8-1.45c-.33-1.34.54-2.55,1.31-3.61s1.37-2,.92-2.74a.46.46,0,0,1-.05-.38.5.5,0,0,1,.22-.31,25,25,0,0,1,9.68-3.32l-.09-3a3.42,3.42,0,0,1-2.18-.24,1.57,1.57,0,0,1-.76-1,2.6,2.6,0,0,1,.09-1.26,6.44,6.44,0,0,0-.05-2.13A8.24,8.24,0,0,1,356,128c-.86-1.62-1.67-3.48-1-5.25.8-2.14,3.23-3.09,7.05-2.79a3.69,3.69,0,0,1,1.19-2.08,8,8,0,0,0,.7-.85,5.14,5.14,0,0,0,.61-2l.07-.39c.51-2.91,3.35-6.69,5.07-8.75a2.79,2.79,0,0,1,3-2,6,6,0,0,1,2.59,1,3.74,3.74,0,0,1,2.65-2.11,11.79,11.79,0,0,1,1.54-.26,7.8,7.8,0,0,0,2-.44c1.77-.74,4.58-2.45,5.06-4.1a.52.52,0,0,1,.28-.32,6.49,6.49,0,0,1,3.28-.77,2.93,2.93,0,0,1,1.92,1,2.1,2.1,0,0,1,.47,1.55,2.36,2.36,0,0,0,.79,1.34.46.46,0,0,1,.36.21.48.48,0,0,1,.05.42.32.32,0,0,0,.15.37,1.41,1.41,0,0,0,1.46,0,5.62,5.62,0,0,0,.94-.84A4.59,4.59,0,0,1,398,99.69a2.67,2.67,0,0,1,3.41,2.43,5.53,5.53,0,0,1-.07.7,2.24,2.24,0,0,0,0,.81.42.42,0,0,0,.35.26.43.43,0,0,1,.3-.24.45.45,0,0,1,.37.09,1.51,1.51,0,0,0,1.19-.06,1.82,1.82,0,0,0,1.09-.92,2.92,2.92,0,0,1,1.66-2.05,1.18,1.18,0,0,1,1.18.29,1.92,1.92,0,0,1,.5,1.06,2.2,2.2,0,0,0,.14.47c.25.46.78.43,1.86.28a5.29,5.29,0,0,1,2.17,0c1.54.48,2.19,2.3,1.76,5a.51.51,0,0,1-.58.41.49.49,0,0,1-.41-.57c.12-.79.42-3.41-1.07-3.87a4.45,4.45,0,0,0-1.74,0c-1.06.15-2.27.32-2.87-.79a3.45,3.45,0,0,1-.24-.73,1.2,1.2,0,0,0-.2-.55.2.2,0,0,0-.22-.06,2.05,2.05,0,0,0-1,1.33,2.72,2.72,0,0,1-1.7,1.61,2.69,2.69,0,0,1-1.72.14,1,1,0,0,1-.63.13,1.4,1.4,0,0,1-1.18-1,3,3,0,0,1,0-1.22,3.55,3.55,0,0,0,.06-.56,1.6,1.6,0,0,0-.7-1.22,1.56,1.56,0,0,0-1.39-.26,3.65,3.65,0,0,0-1.35,1,7,7,0,0,1-1.1,1,2.46,2.46,0,0,1-2.62-.07,1.31,1.31,0,0,1-.56-1,2.08,2.08,0,0,1-.44-.41,3,3,0,0,1-.75-1.85,1.08,1.08,0,0,0-.25-.8,1.94,1.94,0,0,0-1.26-.69,5.13,5.13,0,0,0-2.55.61c-.78,2-3.83,3.78-5.57,4.51a8.8,8.8,0,0,1-2.29.51,10.25,10.25,0,0,0-1.42.24c-1,.26-2.06,1-2,2a.5.5,0,0,1-.25.46.49.49,0,0,1-.52,0,6.3,6.3,0,0,0-2.77-1.23,1.8,1.8,0,0,0-2,1.24.5.5,0,0,1-.11.26c-1.32,1.57-4.44,5.55-4.94,8.39l-.06.37a6,6,0,0,1-.77,2.41,7.89,7.89,0,0,1-.79,1c-.69.78-1.09,1.28-.85,1.77a.52.52,0,0,1-.05.51.46.46,0,0,1-.46.2c-2.58-.29-5.84-.17-6.68,2.08-.54,1.44.25,3.12,1,4.59a.5.5,0,0,1,0,.36,6.19,6.19,0,0,0,.05,2.13,7,7,0,0,1,0,2.5,1.83,1.83,0,0,0-.09.78.56.56,0,0,0,.29.38,3,3,0,0,0,2,0,.51.51,0,0,1,.43.08.49.49,0,0,1,.2.39l.12,4.08a.51.51,0,0,1-.46.52,23.37,23.37,0,0,0-9.33,3c.39,1.19-.44,2.34-1.18,3.37s-1.37,1.9-1.15,2.79a3.77,3.77,0,0,0,.63,1.1,3.45,3.45,0,0,1,.84,1.76,2,2,0,0,1-.56,1.68c-1.07,1-3.4.68-5.65.36-1.58-.23-3.37-.49-3.93-.08a3.9,3.9,0,0,0-1.45,3,10.77,10.77,0,0,0,2.6,7.27l.26.25a3.14,3.14,0,0,1,.82,4.48c-.09.19-.18.38-.25.57-.25.62-.31,1.56.14,1.91a9.55,9.55,0,0,1,7.23.55,1.58,1.58,0,0,1,.83.49.5.5,0,0,1,0,.66.49.49,0,0,1-.64.1l-.51-.29a1,1,0,0,0-.27,0,2.29,2.29,0,0,0-1.38,1.63,10.16,10.16,0,0,1-2.66,4.82c-1.3,1.56-2.53,3-2.47,5.44,0,.18,0,.36,0,.55a3.91,3.91,0,0,1-.6,2.93,4.53,4.53,0,0,1-2.57,1.2c-1.06.25-1.73.43-1.89,1,.37,1.74,1.28,4.52,3.31,4.56l.55,0a2.6,2.6,0,0,1,1.63.21,2.68,2.68,0,0,1,1.06,2.18l.68,5.89a9.81,9.81,0,0,1,5.68,0,13.78,13.78,0,0,1,1.22-4.12.51.51,0,0,1,.4-.28,4.59,4.59,0,0,1,3.37,1,4.83,4.83,0,0,1,1.57,2.27,5.93,5.93,0,0,1,6.53.32l.26.2a2.37,2.37,0,0,0,.86.53c.77.18,1.5-.72,1.75-1.65.09-.32.14-.64.2-1a5.43,5.43,0,0,1,.89-2.45A.49.49,0,0,1,367,197l8.29,2.13a3.68,3.68,0,0,0,2.81-.31c.07-.28.14-.57.23-.87a.52.52,0,0,1,.51-.35.49.49,0,0,1,.46.41,1.56,1.56,0,0,1-.27,1.27c-.21,1.17-.15,2.27.54,2.59a2,2,0,0,0,1.8-.13,1.63,1.63,0,0,0,.86-1.21.5.5,0,0,1,.88-.26,6.88,6.88,0,0,1,1.55,4.48A.49.49,0,0,1,384.14,205.25Z" style="fill:#263238"></path><path d="M440.26,192.19a.5.5,0,0,1-.09-1,1.62,1.62,0,0,0,1-.67,4.13,4.13,0,0,1-.93-1.62c-.05-.14-.1-.28-.16-.41-.25-.6-.78-1.15-1.21-1a1.54,1.54,0,0,0-.49.37l-.18.17c-1.86,1.69-4.64,1.21-7.11.51a4.14,4.14,0,0,1-2.24-1.2,3.48,3.48,0,0,1-.65-2.27l-4.93,0a.5.5,0,0,1-.43-.24.48.48,0,0,1,0-.48c.41-.85-.35-1.93-1.24-2.59A8.93,8.93,0,0,0,416,180a.5.5,0,0,1-.44-.24.47.47,0,0,1,0-.5,5.24,5.24,0,0,0-1.14-6.28l-.54-.43a3.89,3.89,0,0,1-1.66-2,3.76,3.76,0,0,1,1-3,5.08,5.08,0,0,0,.93-1.82.5.5,0,0,1,1,.06.4.4,0,0,0,.32.38,1.64,1.64,0,0,0,1.57-.46,5.79,5.79,0,0,0,.72-1.19,5,5,0,0,1,1.34-1.86,5.77,5.77,0,0,1,.78-.47,2.22,2.22,0,0,0,.9-.66,2.35,2.35,0,0,0,.14-1.38l0-.3a7.75,7.75,0,0,1,3.72-7l.43-.24a5.29,5.29,0,0,0,1-.62,5.07,5.07,0,0,0,1.15-2l1.33-3.47c1.16-3,2.75-4.49,4.63-4.23s2.52,1.84,3.24,3.37a7,7,0,0,0,1.83,2.73,5.84,5.84,0,0,0,2.92.82c.5.06,1,.11,1.47.21a4.43,4.43,0,0,1,2.89,1.94,2.21,2.21,0,0,1,.21,1.9.5.5,0,1,1-.94-.32,1.33,1.33,0,0,0-.13-1.09,3.47,3.47,0,0,0-2.23-1.45c-.45-.09-.91-.14-1.38-.2a6.63,6.63,0,0,1-3.4-1,7.59,7.59,0,0,1-2.14-3.11c-.67-1.41-1.25-2.63-2.48-2.81-1.8-.26-3,2.15-3.56,3.6l-1.33,3.47a6,6,0,0,1-1.41,2.4,5.53,5.53,0,0,1-1.15.75l-.41.23a6.75,6.75,0,0,0-3.22,6.08l0,.28a2.46,2.46,0,0,1-1.57,3,5.24,5.24,0,0,0-.63.37,4.18,4.18,0,0,0-1.06,1.52,7.55,7.55,0,0,1-.83,1.38,2.64,2.64,0,0,1-2.66.77,1.82,1.82,0,0,1-.37-.18,11.1,11.1,0,0,1-.74,1.18c-.56.8-1,1.5-.85,2.23a3.1,3.1,0,0,0,1.3,1.47c.2.15.39.31.58.47a6.28,6.28,0,0,1,1.7,6.77,10,10,0,0,1,5.4,1.93,3.74,3.74,0,0,1,1.75,3.11l5.14,0a.5.5,0,0,1,.49.41.52.52,0,0,1-.31.56c-.17.15,0,1.18.39,1.67a3.3,3.3,0,0,0,1.73.87c2.21.62,4.67,1.07,6.17-.29l.15-.15a2.41,2.41,0,0,1,.86-.6c1-.36,2,.52,2.46,1.56l.18.44a2.46,2.46,0,0,0,.87,1.39.5.5,0,0,1,.22.61,2.62,2.62,0,0,1-1.92,1.64Z" style="fill:#263238"></path><path d="M110.35,362.44a.46.46,0,0,1-.23-.06.49.49,0,0,1-.21-.67,5.75,5.75,0,0,0-.77-6.3A.52.52,0,0,1,109,355a.55.55,0,0,1,.28-.35c2.14-1,3.39-2.22,3.82-3.64a3.1,3.1,0,0,0-.57-2.73,1.94,1.94,0,0,0-1.62-.78.51.51,0,0,1-.42-.18.47.47,0,0,1-.1-.45l.82-3.07a3.15,3.15,0,0,1-2-1.9,5.69,5.69,0,0,1-.27-1.39,6.83,6.83,0,0,0-.11-.79,3.66,3.66,0,0,0-4.48-2.6c-2.06,1-4.53,2-6.92,1.33a4.69,4.69,0,0,1-3.11-3.12,3.09,3.09,0,0,1,.58-3,7.38,7.38,0,0,1,.73-.66,3.29,3.29,0,0,0,.74-.69c.63-.91.11-2.28-.58-3.26-.16-.23-.33-.45-.5-.68a6.65,6.65,0,0,1-1.58-3.1,2.93,2.93,0,0,1,1.24-2.63,1.86,1.86,0,0,1,1.41-.33,1,1,0,0,0-.08-.55,4.79,4.79,0,0,0-2.9-2.06L86,316.14a.5.5,0,0,1-.35-.47l-.16-6.07c-1.33-.15-2.49,1.56-2.94,2.79l-.12.32c-.61,1.67-1.37,3.76-3.29,4.25a.48.48,0,0,1-.56-.25,4.85,4.85,0,0,0-5.23-2.35.53.53,0,0,1-.49-.15.52.52,0,0,1-.1-.51c.89-2.46,1.69-5.34,1-8.08-.63-2.44-3-4.82-5.61-4.44a.51.51,0,0,1-.57-.43.5.5,0,0,1,.42-.56c3.21-.47,6,2.33,6.73,5.18a14.21,14.21,0,0,1-.74,7.88,5.84,5.84,0,0,1,5.26,2.62c1.17-.53,1.74-2.11,2.25-3.51l.12-.32c.8-2.16,2.61-4,4.54-3.31a.51.51,0,0,1,.33.46l.16,6.1,7,2.09c1.4.43,3,1.41,3.54,2.65a2,2,0,0,1-.12,1.8.47.47,0,0,1-.3.23.5.5,0,0,1-.38,0,.82.82,0,0,0-.9.09,1.91,1.91,0,0,0-.81,1.68,5.83,5.83,0,0,0,1.39,2.62l.52.71c1.15,1.63,1.36,3.27.58,4.4a4.69,4.69,0,0,1-.93.91,4,4,0,0,0-.61.54,2.15,2.15,0,0,0-.37,2.06,3.68,3.68,0,0,0,2.42,2.43c2,.57,4.23-.32,6.29-1.29a4.66,4.66,0,0,1,5.82,3.32c.06.3.1.6.13.9a4.6,4.6,0,0,0,.21,1.15,2.14,2.14,0,0,0,1.76,1.35.54.54,0,0,1,.37.21.53.53,0,0,1,.07.42l-.81,3a3,3,0,0,1,1.8,1.13,4.11,4.11,0,0,1,.75,3.65c-.48,1.56-1.72,2.86-3.79,4a6.7,6.7,0,0,1,.5,6.93A.49.49,0,0,1,110.35,362.44Z" style="fill:#263238"></path></g><g id="freepik--Streetlights--inject-2"><path d="M73.11,452.55H65a.5.5,0,0,1-.5-.5V318.8a.5.5,0,0,1,.85-.36l8.13,7.87a.48.48,0,0,1,.15.36V452.05A.5.5,0,0,1,73.11,452.55Zm-7.63-1h7.13V326.88L65.48,320Z" style="fill:#263238"></path><path d="M92,452.55H86.1a.5.5,0,0,1-.5-.5V339.23a.51.51,0,0,1,.3-.46.49.49,0,0,1,.54.1l5.9,5.71a.48.48,0,0,1,.15.36V452.05A.5.5,0,0,1,92,452.55Zm-5.39-1h4.89V345.15l-4.89-4.74Z" style="fill:#263238"></path><path d="M106.11,452.55h-4.48a.5.5,0,0,1-.5-.5V354.27a.5.5,0,0,1,.85-.36l4.47,4.32a.52.52,0,0,1,.16.36v93.46A.5.5,0,0,1,106.11,452.55Zm-4-1h3.48V358.81l-3.48-3.36Z" style="fill:#263238"></path><path d="M113.54,452.55a.5.5,0,0,1-.5-.5V365.79a.5.5,0,0,1,.31-.46.49.49,0,0,1,.54.1l3.51,3.4a.48.48,0,0,1,.15.36v80.86a.5.5,0,0,1-.5.5.5.5,0,0,1-.5-.5V369.4L114,367v85.08A.5.5,0,0,1,113.54,452.55Z" style="fill:#263238"></path><path d="M123,452.55a.5.5,0,0,1-.5-.5V374.91a.51.51,0,0,1,.3-.46.49.49,0,0,1,.54.1l2.83,2.73a.49.49,0,0,1,.15.36v71.41a.5.5,0,0,1-1,0v-71.2l-1.82-1.76v76A.5.5,0,0,1,123,452.55Z" style="fill:#263238"></path><path d="M130.61,447.55a.5.5,0,0,1-.5-.5V382.3a.51.51,0,0,1,.3-.46.49.49,0,0,1,.54.1l2.33,2.25a.5.5,0,0,1-.7.72l-1.47-1.43v63.57A.5.5,0,0,1,130.61,447.55Z" style="fill:#263238"></path><path d="M138.87,448.55a.5.5,0,0,1-.5-.5V390.51l-1.79-1.74a.49.49,0,0,1,0-.7.5.5,0,0,1,.71,0l1.95,1.89a.51.51,0,0,1,.15.35v57.76A.5.5,0,0,1,138.87,448.55Z" style="fill:#263238"></path><path d="M143.89,452.55a.5.5,0,0,1-.5-.5V395.36l-1.5-1.45a.49.49,0,0,1,0-.7.48.48,0,0,1,.7,0l1.66,1.59a.55.55,0,0,1,.15.36v56.9A.5.5,0,0,1,143.89,452.55Z" style="fill:#263238"></path><path d="M148.19,443.48a.5.5,0,0,1-.5-.5V399.52l-1.27-1.22a.5.5,0,1,1,.7-.72l1.41,1.37a.52.52,0,0,1,.16.36V443A.5.5,0,0,1,148.19,443.48Z" style="fill:#263238"></path><path d="M148.19,450.55a.5.5,0,0,1-.5-.5v-3a.5.5,0,0,1,.5-.5.51.51,0,0,1,.5.5v3A.5.5,0,0,1,148.19,450.55Z" style="fill:#263238"></path><path d="M151.91,430.77a.5.5,0,0,1-.5-.5V403.12l-1.08-1a.5.5,0,0,1,.69-.72l1.24,1.19a.55.55,0,0,1,.15.36v27.36A.5.5,0,0,1,151.91,430.77Z" style="fill:#263238"></path><path d="M151.91,438.65a.5.5,0,0,1-.5-.5v-3.79a.5.5,0,0,1,1,0v3.79A.5.5,0,0,1,151.91,438.65Z" style="fill:#263238"></path><path d="M151.91,452.55a.5.5,0,0,1-.5-.5v-2.94a.5.5,0,0,1,1,0v2.94A.5.5,0,0,1,151.91,452.55Z" style="fill:#263238"></path><path d="M155.16,434.2a.5.5,0,0,1-.5-.5V406.27l-.93-.89a.51.51,0,0,1,0-.71.5.5,0,0,1,.71,0l1.08,1a.51.51,0,0,1,.15.36V433.7A.5.5,0,0,1,155.16,434.2Z" style="fill:#263238"></path><path d="M155.16,447.55a.5.5,0,0,1-.5-.5v-2.78a.51.51,0,0,1,.5-.5.5.5,0,0,1,.5.5v2.78A.5.5,0,0,1,155.16,447.55Z" style="fill:#263238"></path><rect x="90.58" y="126.08" width="1.06" height="6.76" style="fill:#999"></rect><path d="M91.63,133.34h-1a.5.5,0,0,1-.5-.5v-6.76a.5.5,0,0,1,.5-.5h1a.5.5,0,0,1,.5.5v6.76A.5.5,0,0,1,91.63,133.34Zm-.55-1h0v-5.76h0Z" style="fill:#263238"></path><path d="M104,143.26,91.1,142l-12.93,1.23,2,2.75-1,.77s3.44,1.68,11.95,1.68,12-1.68,12-1.68l-1-.77Z" style="fill:#263238"></path><path d="M91.1,149c-8.53,0-12-1.66-12.17-1.73a.5.5,0,0,1-.27-.4.47.47,0,0,1,.19-.44l.6-.48-1.68-2.36a.46.46,0,0,1,0-.49.47.47,0,0,1,.4-.29l12.94-1.24,13,1.24a.47.47,0,0,1,.41.29.48.48,0,0,1,0,.49l-1.68,2.36.6.48a.47.47,0,0,1,.19.44.51.51,0,0,1-.28.4C103.13,147.3,99.64,149,91.1,149Zm-10.94-2.34A36,36,0,0,0,91.1,148a36,36,0,0,0,11-1.34l-.29-.22a.49.49,0,0,1-.09-.68l1.45-2-12.06-1.15-12,1.15,1.46,2a.49.49,0,0,1-.1.68Z" style="fill:#263238"></path><polygon points="97.13 169.04 85.08 169.04 81.08 144.01 101.13 144.01 97.13 169.04" style="fill:#999"></polygon><path d="M97.13,169.54h-12a.5.5,0,0,1-.49-.42l-4-25a.51.51,0,0,1,.11-.4.49.49,0,0,1,.38-.18h20a.49.49,0,0,1,.38.18.51.51,0,0,1,.11.4l-4,25A.5.5,0,0,1,97.13,169.54Zm-11.62-1H96.7l3.84-24H81.67Z" style="fill:#263238"></path><polygon points="98.78 146.01 97.69 152.86 96.29 161.57 95.42 167.04 86.79 167.04 85.92 161.57 84.52 152.86 83.43 146.01 98.78 146.01" style="fill:#FFC100"></polygon><path d="M95.42,167.54H86.79a.49.49,0,0,1-.49-.42l-3.36-21a.47.47,0,0,1,.11-.41.49.49,0,0,1,.38-.17H98.78a.49.49,0,0,1,.49.58l-3.36,21A.5.5,0,0,1,95.42,167.54Zm-8.2-1H95l3.2-20H84Z" style="fill:#263238"></path><g style="clip-path:url(#freepik--clip-path-14--inject-2)"><path d="M97.69,152.86l-1.4,8.71a7.4,7.4,0,0,1-10.37,0l-1.4-8.71a7.42,7.42,0,0,1,13.17,0Z" style="fill:#fff;opacity:0.4"></path><path d="M95,156.59a3.94,3.94,0,1,1-3.94-3.93A3.93,3.93,0,0,1,95,156.59Z" style="fill:#fff;opacity:0.4"></path></g><path d="M91.08,133.92l0,.09,0-.09s11.41,9.1,14.18,7.12c0,0,0,3-4.16,3H81.05c-4.15,0-4.15-3-4.15-3C79.67,143,91.08,133.92,91.08,133.92Z" style="fill:#bfbfbf"></path><path d="M101.15,144.51H81.05c-4.6,0-4.65-3.43-4.65-3.47a.49.49,0,0,1,.27-.44.49.49,0,0,1,.52,0c1.8,1.28,9.28-3.68,13.57-7.11a.54.54,0,0,1,.46-.09l0,0a.29.29,0,0,1,.18.07c4.3,3.43,11.78,8.39,13.58,7.11a.49.49,0,0,1,.52,0,.49.49,0,0,1,.27.44S105.75,144.51,101.15,144.51Zm-23.57-2.72c.31.73,1.16,1.72,3.47,1.72h20.1c2.32,0,3.16-1,3.48-1.72-3.53.37-11.28-5.48-13.53-7.25C88.86,136.31,81.12,142.16,77.58,141.79Z" style="fill:#263238"></path><polygon points="94.19 171.29 88.02 171.29 85.02 169.04 97.19 169.04 94.19 171.29" style="fill:#263238"></polygon><path d="M94.19,171.8H88a.54.54,0,0,1-.3-.1l-3-2.26a.5.5,0,0,1-.17-.56.51.51,0,0,1,.47-.34H97.19a.51.51,0,0,1,.47.34.5.5,0,0,1-.17.56l-3,2.26A.57.57,0,0,1,94.19,171.8Zm-6-1H94l1.67-1.26H86.52Z" style="fill:#263238"></path><rect x="89.39" y="130.69" width="3.43" height="4.52" style="fill:#999"></rect><path d="M92.82,135.71H89.39a.5.5,0,0,1-.5-.5v-4.52a.5.5,0,0,1,.5-.5h3.43a.5.5,0,0,1,.5.5v4.52A.5.5,0,0,1,92.82,135.71Zm-2.93-1h2.43v-3.52H89.89Z" style="fill:#263238"></path><path d="M88.7,170.17a5.08,5.08,0,0,1,2.4-.51,5.28,5.28,0,0,1,2.4.51V452H88.7Z" style="fill:#bfbfbf"></path><path d="M93.5,452.46H88.7a.5.5,0,0,1-.5-.5V170.17a.5.5,0,0,1,.25-.43,5.44,5.44,0,0,1,2.65-.58,5.89,5.89,0,0,1,2.65.57.5.5,0,0,1,.25.44V452A.5.5,0,0,1,93.5,452.46Zm-4.3-1H93v-281a5.4,5.4,0,0,0-1.9-.33,5.3,5.3,0,0,0-1.9.33Z" style="fill:#263238"></path><path d="M127.09,218H127a11.09,11.09,0,0,1-2-.63.51.51,0,0,1-.28-.4.5.5,0,0,1,.19-.45l.37-.3L124,214.5a.5.5,0,0,1,0-.64.49.49,0,0,1,.64-.06,3.42,3.42,0,0,0,1.94.48h0a.5.5,0,0,1,.49.42l.44,2.73a.5.5,0,0,1-.15.45A.55.55,0,0,1,127.09,218Zm-.91-1.26.29.09-.06-.4a.61.61,0,0,1-.18.28Zm-.43-1.53.58.81,0,0-.13-.79Z" style="fill:#263238"></path><path d="M141.65,218a.53.53,0,0,1-.34-.13.5.5,0,0,1-.15-.45l.43-2.73a.51.51,0,0,1,.5-.42h0a3.36,3.36,0,0,0,1.93-.48.5.5,0,0,1,.69.7l-1.23,1.72.38.3a.5.5,0,0,1,.19.45.53.53,0,0,1-.28.4,11.83,11.83,0,0,1-2,.63Zm.68-1.57-.07.4.29-.09,0,0A.49.49,0,0,1,142.33,216.44Zm.19-1.17-.13.79,0,0,.58-.81Z" style="fill:#263238"></path><path d="M139,234.56h-9.28a.49.49,0,0,1-.49-.42l-3.08-19.28a.46.46,0,0,1,.11-.4.49.49,0,0,1,.38-.18h15.44a.5.5,0,0,1,.49.58l-3.08,19.28A.5.5,0,0,1,139,234.56Zm-8.85-1h8.42l2.92-18.28H127.24Zm7.53-.54H131a.5.5,0,0,1-.49-.42L128,216.4a.52.52,0,0,1,.5-.58h11.82a.51.51,0,0,1,.38.18.49.49,0,0,1,.11.4l-2.58,16.2A.51.51,0,0,1,137.69,233Zm-6.22-1h5.79l.61-3.79h0l1.82-11.41H129Z" style="fill:#263238"></path><polygon points="140.28 216.32 128.46 216.32 129.3 221.6 130.38 228.31 131.04 232.52 137.69 232.52 138.36 228.31 139.44 221.6 140.28 216.32" style="fill:#fff"></polygon><path d="M137.69,233H131a.5.5,0,0,1-.49-.42L128,216.4a.52.52,0,0,1,.5-.58h11.82a.51.51,0,0,1,.38.18.49.49,0,0,1,.11.4l-2.58,16.2A.51.51,0,0,1,137.69,233Zm-6.22-1h5.79l2.43-15.2H129Z" style="fill:#263238"></path><path d="M142.11,215.28H126.65a4.38,4.38,0,0,1-2.53-.66,2.77,2.77,0,0,1-1.19-2.12.5.5,0,0,1,.27-.45.51.51,0,0,1,.52,0c.7.5,3.49-.37,9-4.49a.54.54,0,0,1,.3-.1h2.64a.53.53,0,0,1,.3.09c5.54,4.12,8.33,5,9,4.49a.51.51,0,0,1,.52,0,.52.52,0,0,1,.27.45,2.76,2.76,0,0,1-1.2,2.12A4.32,4.32,0,0,1,142.11,215.28Zm-18-2.08a1.75,1.75,0,0,0,.54.6,3.42,3.42,0,0,0,1.94.48h15.46a3.38,3.38,0,0,0,1.95-.48,1.79,1.79,0,0,0,.55-.6c-1.71.05-4.78-1.53-9.07-4.7h-2.31C128.92,211.67,125.89,213.26,124.15,213.2Z" style="fill:#263238"></path><path d="M136.74,236.3h-.52a.5.5,0,0,1-.5-.5v-.54a4,4,0,0,0-1.35-.22,3.83,3.83,0,0,0-1.35.22v.54a.5.5,0,0,1-.5.5H132a.57.57,0,0,1-.3-.1l-2.31-1.74a.5.5,0,0,1-.17-.56.51.51,0,0,1,.47-.34H139a.52.52,0,0,1,.49.34.49.49,0,0,1-.15.56L137,236.2A.51.51,0,0,1,136.74,236.3Zm-5.56-1.74.84.63v-.26a.52.52,0,0,1,.16-.37Zm5.38,0a.52.52,0,0,1,.16.37v.26l.83-.63Z" style="fill:#263238"></path><path d="M135.69,208.51h-2.64a.5.5,0,0,1-.5-.5v-3.49a.5.5,0,0,1,.5-.5h.41V201a.5.5,0,0,1,.5-.5h.81a.5.5,0,0,1,.5.5V204h.42a.51.51,0,0,1,.5.5V208A.51.51,0,0,1,135.69,208.51Zm-2.14-1h1.64V205h-.42a.51.51,0,0,0-.81,0h-.41Z" style="fill:#263238"></path><path d="M136.22,449.46a.5.5,0,0,1-.5-.5v-2.25a.5.5,0,0,1,.5-.5.5.5,0,0,1,.5.5V449A.5.5,0,0,1,136.22,449.46Z" style="fill:#263238"></path><path d="M136.22,439.7V234.93a4.14,4.14,0,0,0-1.85-.39,3.94,3.94,0,0,0-1.85.39V452" style="fill:#fff"></path><path d="M132.52,452.46a.5.5,0,0,1-.5-.5v-217a.48.48,0,0,1,.25-.43,4.38,4.38,0,0,1,2.1-.46,4.74,4.74,0,0,1,2.09.45.51.51,0,0,1,.26.44V439.7a.5.5,0,0,1-.5.5.5.5,0,0,1-.5-.5V235.26a4,4,0,0,0-1.35-.22,3.83,3.83,0,0,0-1.35.22V452A.5.5,0,0,1,132.52,452.46Z" style="fill:#263238"></path></g><g id="freepik--Floor--inject-2"><path d="M444.76,452.55H61.29a.5.5,0,0,1-.5-.5.5.5,0,0,1,.5-.5H444.76a.51.51,0,0,1,.5.5A.5.5,0,0,1,444.76,452.55Z" style="fill:#263238"></path></g><g id="freepik--character-1--inject-2"><path d="M219.89,325.17c-2.76,10.1-6.14,17.89-6.14,21.07,0,1.55-1.65,5.39-2.54,10.33-.18,1-.33,2.07-.43,3.17-1.28,14-1.48,33.93-2.65,38.54C206.42,405,203.36,420,203.36,420s-5.59,4.75-12.14-2c-5.5-5.64-3.81-56.22-2.63-79.49.15-3.19.3-5.86.42-7.84L186,293l8.86-3.13.54-.19,4.48-1.59,6.5-2.3s15.43-2.09,16.66,9.48C224.18,306,222.26,316.45,219.89,325.17Z" style="fill:#FFC100"></path><path d="M198.51,422.14c-2.16,0-4.83-.85-7.65-3.73-6-6.17-3.64-62.69-2.77-79.87.15-3.19.3-5.86.42-7.84l-3-37.64a.49.49,0,0,1,.33-.51l20.38-7.21.1,0c.35,0,8.45-1.09,13.48,2.86a10,10,0,0,1,3.75,7.07c.95,8.9-.08,18.73-3.16,30.06h0c-1.18,4.34-2.46,8.18-3.58,11.56-1.42,4.27-2.54,7.64-2.54,9.38a17,17,0,0,1-.87,3.75,61.87,61.87,0,0,0-1.68,6.67c-.19,1.06-.33,2.11-.42,3.13-.57,6.21-.93,13.69-1.25,20.29-.4,8.43-.75,15.71-1.42,18.32-1.68,6.64-4.73,21.58-4.76,21.73a.46.46,0,0,1-.17.28A8.67,8.67,0,0,1,198.51,422.14Zm-12-128.78,3,37.33c-.12,2.05-.27,4.72-.42,7.9-1.78,35.19-2.07,74.45,2.49,79.12,5.69,5.84,10.47,2.69,11.33,2,.35-1.71,3.14-15.33,4.74-21.59.63-2.52,1-9.75,1.38-18.13.32-6.61.68-14.1,1.25-20.34.1-1,.24-2.12.44-3.21a60.6,60.6,0,0,1,1.7-6.78,17.06,17.06,0,0,0,.83-3.46c0-1.9,1.09-5.17,2.59-9.7,1.12-3.37,2.39-7.19,3.57-11.5h0c3-11.21,4.07-20.92,3.12-29.7a9,9,0,0,0-3.36-6.38c-4.51-3.54-12-2.74-12.68-2.66Zm33.37,31.81h0Z" style="fill:#263238"></path><g style="clip-path:url(#freepik--clip-path-15--inject-2)"><path d="M219.89,325.17c-2.76,10.1-6.14,17.89-6.14,21.07,0,1.55-1.65,5.39-2.54,10.33-.18,1-.33,2.07-.43,3.17-1.28,14-1.48,33.93-2.65,38.54C206.42,405,203.36,420,203.36,420s-5.59,4.75-12.14-2c-5.5-5.64-3.81-56.22-2.63-79.49.15-3.19.3-5.86.42-7.84L186,293l8.86-3.13c.62.42,1,.73,1.09.79s-.23-.41-.55-1l4.48-1.59a18.43,18.43,0,0,0,3.83,2.58c3.56,1.43,10,.24,10.23,1.63s-5.28,4.85-5.28,4.85,5.87-.1,8.37,0-10.21,6.41-10.21,6.41,7.71,3.91,10.21,3.74-5.05,1.91-10.66,1.86c0,0-1.84,18.94-.76,24.28C206.38,337.35,214,332.12,219.89,325.17Z" style="fill-opacity:0.7000000000000001;opacity:0.2"></path><path d="M211.21,356.57c-.18,1-.33,2.07-.43,3.17-1.28,14-1.48,33.93-2.65,38.54C206.42,405,203.36,420,203.36,420s-5.59,4.75-12.14-2c-5.5-5.64-3.81-56.22-2.63-79.49,2.87-1.66,4.75-2.73,4.75-2.73s8.07,19.84,12.26,19.58a10.52,10.52,0,0,1-5.32,6.26S202.1,365,211.21,356.57Z" style="fill:#263238"></path></g><path d="M204,416.84s-3.8.69-5.12,3.59a7.73,7.73,0,0,0-3.56-4.75s-4.52,18.86-2,23.74,9,4.28,10.34-1.55.44-10.58.34-12.89S204,416.84,204,416.84Z" style="fill:#263238"></path><path d="M198.34,443.2a6.22,6.22,0,0,1-5.44-3.55c-2.58-5,1.77-23.31,1.95-24.08a.5.5,0,0,1,.3-.35.48.48,0,0,1,.45,0,8.44,8.44,0,0,1,3.44,4,8.59,8.59,0,0,1,4.89-2.88.53.53,0,0,1,.41.12.51.51,0,0,1,.18.38c0,.06-.11,5.85,0,8.12,0,.43.07,1,.12,1.56a35.7,35.7,0,0,1-.47,11.46,6.23,6.23,0,0,1-5.11,5.18A5.53,5.53,0,0,1,198.34,443.2Zm-2.68-26.7c-.78,3.45-4,18.55-1.87,22.69a5.07,5.07,0,0,0,5.13,3c2.13-.27,3.72-1.92,4.27-4.4a35.11,35.11,0,0,0,.45-11.15c-.06-.62-.1-1.16-.12-1.61-.09-1.86,0-5.92,0-7.52a6.6,6.6,0,0,0-4.14,3.16.53.53,0,0,1-.52.29.5.5,0,0,1-.43-.41A7.25,7.25,0,0,0,195.66,416.5Z" style="fill:#263238"></path><path d="M230.43,215s7.54,20.8,8.53,24.17,4.65,14.14.2,17.5c-2.81,2.13-7.85-.49-11.2-3.29l.32-12.33s-7-14.81-9-17.81S223.51,214.51,230.43,215Z" style="fill:#fff"></path><path d="M236.64,258c-2.89,0-6.4-2-9-4.18a.52.52,0,0,1-.18-.4l.31-12.22c-.63-1.34-7-14.82-8.94-17.62a3.34,3.34,0,0,1,.13-3.66c1.68-2.93,6.44-5.73,11.51-5.37a.49.49,0,0,1,.43.33c.31.85,7.56,20.86,8.54,24.2l.23.77c1.26,4.17,4.22,13.93-.21,17.27A4.59,4.59,0,0,1,236.64,258Zm-8.17-4.8c3.5,2.87,8,4.91,10.38,3.12,3.88-2.92,1-12.55-.14-16.18l-.23-.78c-.91-3.09-7.46-21.23-8.41-23.83-4.49-.21-8.78,2.34-10.24,4.88a2.44,2.44,0,0,0-.18,2.6c2.06,3,8.79,17.27,9.08,17.87a.59.59,0,0,1,.05.23Z" style="fill:#263238"></path><path d="M209,160s1.95-1.85,6.14,3.43-1.08,17.52,5,22.61,8.36,6.79,9.23,8.74a6.46,6.46,0,0,1-.53,5.61s1.58-2-2.9-6.17-8.7-5.32-9-6.32c0,0,.27,6.25,3.43,8.43s8.44,3.45,6.33,9.67-41.1,12.32-48.94,6.76-4.33-19.28-4.33-19.28-9.76,9.41-4.49,15.92c0,0-4.22-.5-3.42-8.46s3.16-7.82,5.8-13c0,0-7.65,5.09-11.08,2.57,0,0,7.12-.91,10.29-6.72s4.83-19.32,11.51-26.15S206,151,209,160Z" style="fill:#263238"></path><path d="M163.73,215s-7.54,20.8-8.53,24.17-4.65,14.14-.2,17.5c2.81,2.13,5.76.37,13.42-4.77l-2.54-10.85s7-14.81,9-17.81S170.65,214.51,163.73,215Z" style="fill:#fff"></path><path d="M157.47,258.07a4.42,4.42,0,0,1-2.77-1c-4.43-3.34-1.48-13.1-.22-17.27l.24-.77c1-3.34,8.23-23.35,8.53-24.2a.5.5,0,0,1,.44-.33c5.06-.37,9.83,2.44,11.5,5.37a3.33,3.33,0,0,1,.14,3.66c-1.9,2.76-8.17,16-8.92,17.57l2.49,10.69a.5.5,0,0,1-.2.53C163.21,256,160,258.07,157.47,258.07Zm6.61-42.58c-.94,2.6-7.49,20.74-8.4,23.83l-.24.78c-1.1,3.63-4,13.26-.14,16.18,2.44,1.85,5.09.4,12.55-4.59l-2.46-10.52a.54.54,0,0,1,0-.33c.28-.6,7-14.87,9.07-17.87a2.44,2.44,0,0,0-.18-2.6C172.87,217.83,168.57,215.28,164.08,215.49Z" style="fill:#263238"></path><path d="M233.29,219a79.93,79.93,0,0,0-8,6.23c-1.16,1-2,1.67-2,1.67a97.92,97.92,0,0,1-7.87,31.47H179.86c-11.15-23.2-7-31.91-8.59-34.41a10.44,10.44,0,0,0-2.22-2.18,59.2,59.2,0,0,0-6.71-4.3s-.26-3.68,4.48-8.08,17.41-8.52,30.56-8.52c16.92,0,26.56,4,29.31,7.38A58.78,58.78,0,0,1,233.29,219Z" style="fill:#bfbfbf"></path><path d="M215.45,258.86H179.86a.5.5,0,0,1-.45-.28c-8.12-16.9-8.16-26-8.18-31,0-1.7,0-2.83-.38-3.4a9.78,9.78,0,0,0-2.11-2.06,57.9,57.9,0,0,0-6.64-4.25.49.49,0,0,1-.26-.4c0-.16-.22-4,4.64-8.49,4.53-4.19,16.9-8.65,30.9-8.65,16.2,0,26.59,3.8,29.7,7.56a60.28,60.28,0,0,1,6.66,10.85.49.49,0,0,1-.2.64,86.81,86.81,0,0,0-7.95,6.18l-1.79,1.53a99.53,99.53,0,0,1-7.9,31.45A.5.5,0,0,1,215.45,258.86Zm-35.28-1h35a99.57,99.57,0,0,0,7.69-31,.51.51,0,0,1,.17-.34s.79-.69,2-1.67a93.06,93.06,0,0,1,7.69-6,56.59,56.59,0,0,0-6.34-10.23c-2.2-2.67-10.78-7.2-28.92-7.2-13.75,0-25.83,4.32-30.22,8.39-3.78,3.5-4.26,6.53-4.31,7.42a57,57,0,0,1,6.51,4.2,10.69,10.69,0,0,1,2.33,2.3c.53.81.53,2,.54,3.94C172.25,232.42,172.29,241.35,180.17,257.86Z" style="fill:#263238"></path><g style="clip-path:url(#freepik--clip-path-16--inject-2)"><path d="M225.27,225.22c-1.16,1-2,1.67-2,1.67a97.92,97.92,0,0,1-7.87,31.47H179.86c-11.15-23.2-7-31.91-8.59-34.41a10.44,10.44,0,0,0-2.22-2.18,10.39,10.39,0,0,1,4.53-4.3s-1,14.64.83,16.56,8,.16,8,.16l14.69-3.74s13.72,3.13,16.19,4.71,6.81-4.71,6.81-4.71L218.84,221l3.38,4.44L221,218.21A27.06,27.06,0,0,1,225.27,225.22Z" style="fill-opacity:0.7000000000000001;opacity:0.2"></path></g><path d="M197.38,200.87c10.32,0,15.31,2,15.31,2s-7.87,6.51-15.4,6.51-13.43-6.51-13.43-6.51S187.22,200.87,197.38,200.87Z" style="fill:#fff"></path><path d="M197.29,209.89c-7.65,0-13.56-6.4-13.8-6.67a.51.51,0,0,1-.13-.41.47.47,0,0,1,.24-.35c.14-.09,3.59-2.09,13.78-2.09s15.29,2,15.5,2a.52.52,0,0,1,.31.39.51.51,0,0,1-.18.46C212.68,203.54,204.91,209.89,197.29,209.89ZM184.71,203c1.55,1.49,6.58,5.85,12.58,5.85s12.25-4.27,14.35-5.83a50.74,50.74,0,0,0-14.26-1.69C189.82,201.37,186.06,202.51,184.71,203Z" style="fill:#263238"></path><path d="M190.44,204.74a16.31,16.31,0,0,0-.17-9.45h0a29.16,29.16,0,0,0-3.37-7.39h19.32a22.87,22.87,0,0,0-1.52,3.92,24.5,24.5,0,0,0-1,6.19,22.07,22.07,0,0,0,.54,5.77" style="fill:#fff"></path><path d="M190.44,205.24a.47.47,0,0,1-.16,0,.51.51,0,0,1-.32-.63,15.43,15.43,0,0,0-.17-9.13s0,0,0,0h0a28.93,28.93,0,0,0-3.3-7.25.49.49,0,0,1,0-.51.5.5,0,0,1,.44-.27h19.32a.49.49,0,0,1,.42.24.48.48,0,0,1,0,.48,22.45,22.45,0,0,0-1.48,3.84,24.1,24.1,0,0,0-.94,6.07,21.35,21.35,0,0,0,.52,5.62.49.49,0,0,1-.35.61.48.48,0,0,1-.61-.35,22.11,22.11,0,0,1-.56-5.91,25.18,25.18,0,0,1,1-6.32,23,23,0,0,1,1.21-3.28H187.79a29.5,29.5,0,0,1,2.94,6.72s0,0,0,0a16.59,16.59,0,0,1,.17,9.75A.5.5,0,0,1,190.44,205.24Z" style="fill:#263238"></path><path d="M204.69,191.81a24.5,24.5,0,0,0-1,6.19c-1.89,1.68-4.35,3.3-6.47,2.85-4-.84-6.82-5.28-7-5.56h0Z" style="fill:#263238"></path><path d="M211,177.05s2.38-1.65,3.81-.8-2.14,6.36-2.3,7.49-1.82,2.66-2.81,2.21S208.43,179.45,211,177.05Z" style="fill:#fff"></path><path d="M210.06,186.53a1.31,1.31,0,0,1-.59-.13c-.43-.19-.72-.76-.88-1.73-.36-2.17,0-6.09,2-8l.06-.05c.27-.19,2.69-1.81,4.35-.81,1.36.82,0,3.59-1.2,6a12.24,12.24,0,0,0-.86,1.95,3.73,3.73,0,0,1-1.86,2.41A2.16,2.16,0,0,1,210.06,186.53Zm1.23-9.09c-1.42,1.36-1.87,4-1.82,5.91a4.21,4.21,0,0,0,.43,2.16,1,1,0,0,0,.74-.16,2.84,2.84,0,0,0,1.35-1.68,10.17,10.17,0,0,1,.95-2.25c.54-1.09,2.16-4.39,1.58-4.74C213.6,176.13,211.9,177,211.29,177.44Z" style="fill:#263238"></path><path d="M183.1,177.05s-2.38-1.65-3.81-.8,2.14,6.36,2.3,7.49,1.82,2.66,2.81,2.21S185.64,179.45,183.1,177.05Z" style="fill:#fff"></path><path d="M184,186.53a2.16,2.16,0,0,1-1.06-.31,3.76,3.76,0,0,1-1.86-2.41,11.36,11.36,0,0,0-.86-1.95c-1.2-2.45-2.56-5.21-1.19-6,1.65-1,4.08.62,4.35.81l.06.05c2,1.89,2.4,5.81,2,8-.16,1-.44,1.54-.87,1.73A1.38,1.38,0,0,1,184,186.53Zm-3.74-10a1.42,1.42,0,0,0-.72.17c-.58.35,1,3.65,1.58,4.74a9.67,9.67,0,0,1,1,2.25,2.84,2.84,0,0,0,1.35,1.68.92.92,0,0,0,.76.14,4.26,4.26,0,0,0,.41-2.14c.05-1.88-.4-4.55-1.81-5.91A5.41,5.41,0,0,0,180.27,176.51Z" style="fill:#263238"></path><path d="M196.34,157.59c20.07,0,14.37,25.77,13,29.61-1.49,4.09-8.7,12.25-12.36,12.25S185.49,191,184.6,186.84C184.1,184.52,177.59,157.59,196.34,157.59Z" style="fill:#fff"></path><path d="M196.94,200c-3.93,0-11.89-8.64-12.83-13l-.05-.24c-1.47-6.61-3.15-18.68,2.13-25.27,2.32-2.89,5.74-4.35,10.15-4.35,5.46,0,9.53,1.87,12.1,5.55,5.63,8.06,2.24,22.27,1.33,24.73C208.33,191.33,201,200,196.94,200Zm-.6-41.86c-4.09,0-7.25,1.34-9.37,4-5.2,6.49-3.09,19.24-1.94,24.42l.06.25c.86,4,8.33,12.21,11.85,12.21s10.45-8,11.89-11.92c.88-2.39,4.18-16.11-1.21-23.81C205.25,159.81,201.45,158.09,196.34,158.09Z" style="fill:#263238"></path><ellipse cx="203.24" cy="182.43" rx="1.03" ry="1.31" style="fill:#263238"></ellipse><ellipse cx="190.94" cy="182.43" rx="1.03" ry="1.31" style="fill:#263238"></ellipse><path d="M206.2,178.35a.49.49,0,0,1-.38-.18,3.7,3.7,0,0,0-5.24-.56.51.51,0,0,1-.71-.09.5.5,0,0,1,.09-.7s3.66-2.79,6.62.7a.51.51,0,0,1-.05.71A.52.52,0,0,1,206.2,178.35Z" style="fill:#263238"></path><path d="M186.89,178a.51.51,0,0,1-.42-.23.5.5,0,0,1,.15-.69c4.53-2.91,6.9.09,6.92.12a.5.5,0,0,1-.09.7.51.51,0,0,1-.7-.09c-.08-.1-1.86-2.28-5.59.11A.53.53,0,0,1,186.89,178Z" style="fill:#263238"></path><path d="M197.11,191a.5.5,0,0,1-.5-.5.51.51,0,0,1,.5-.5c.5,0,.75-.21.83-.41a.27.27,0,0,0-.06-.29c-.92-.79-.72-4-.72-4a.5.5,0,0,1,.55-.45.5.5,0,0,1,.44.55,6.71,6.71,0,0,0,.39,3.13,1.26,1.26,0,0,1,.33,1.4A1.76,1.76,0,0,1,197.11,191Z" style="fill:#263238"></path><path d="M196.78,195.27h-.19a4.09,4.09,0,0,1-3.88-3,.5.5,0,0,1,.13-.47.49.49,0,0,1,.47-.14c.05,0,4.5,1.06,7.56,0a.51.51,0,0,1,.64.31.5.5,0,0,1-.32.63c-.23.08-.48.15-.72.21a.52.52,0,0,1,0,.35C200.45,193.28,199.72,195.27,196.78,195.27Zm-2.73-2.43a3,3,0,0,0,2.56,1.43,2.89,2.89,0,0,0,2.84-1.24A18.58,18.58,0,0,1,194.05,192.84Z" style="fill:#263238"></path><path d="M204.27,168.4c-.7-2.51-13.66-1.5-16.19,0s-4.5,8-4.62,11.9c0,0-1.4-.1-2.5-10.16s7.86-17.09,16.83-16.54,15.06,10.69,15.77,15.51-3.1,13.32-3.1,13.32a16,16,0,0,0-1.49-6.75C207.39,172.6,205.1,171.41,204.27,168.4Z" style="fill:#263238"></path><path d="M189,213.87v-1.72a1.12,1.12,0,0,1,1.13-1.13h14.35a1.13,1.13,0,0,1,1.13,1.13v2.08L197.31,227Z" style="fill:#263238"></path><path d="M197.31,227.46h0a.5.5,0,0,1-.42-.23l-8.32-13.09a.5.5,0,0,1-.08-.27v-1.72a1.63,1.63,0,0,1,1.63-1.63h14.35a1.63,1.63,0,0,1,1.63,1.63v2.08a.5.5,0,0,1-.08.27l-8.29,12.73A.5.5,0,0,1,197.31,227.46Zm-7.82-13.73,7.83,12.3,7.78-11.95v-1.93a.63.63,0,0,0-.63-.63H190.12a.63.63,0,0,0-.63.63Z" style="fill:#263238"></path><path d="M202.18,235.16h-9.77a1.35,1.35,0,0,1-1.34-1.2L189,214.23a1.33,1.33,0,0,1,1.33-1.48h13.93a1.34,1.34,0,0,1,1.33,1.48L203.51,234A1.34,1.34,0,0,1,202.18,235.16Z" style="fill:#263238"></path><path d="M202.18,235.66h-9.77a1.83,1.83,0,0,1-1.83-1.65l-2.08-19.73a1.82,1.82,0,0,1,.46-1.42,1.84,1.84,0,0,1,1.37-.61h13.93a1.8,1.8,0,0,1,1.36.61,1.86,1.86,0,0,1,.47,1.42L204,234A1.84,1.84,0,0,1,202.18,235.66Zm-11.85-22.41a.86.86,0,0,0-.84.93l2.08,19.73a.85.85,0,0,0,.84.75h9.77a.84.84,0,0,0,.83-.75l2.08-19.73a.84.84,0,0,0-.83-.93Z" style="fill:#263238"></path><g style="clip-path:url(#freepik--clip-path-17--inject-2)"><path d="M202.18,235.16h-9.77a1.35,1.35,0,0,1-1.34-1.2L189,214.23a1.33,1.33,0,0,1,1.33-1.48h13.93a1.34,1.34,0,0,1,1.33,1.48L203.51,234A1.34,1.34,0,0,1,202.18,235.16Z" style="fill:#fff;opacity:0.2"></path></g><path d="M190.94,215.36l.21,2.26a.32.32,0,0,0,.32.29h2.82a.33.33,0,0,0,.32-.32v-2.26a.32.32,0,0,0-.32-.32h-3A.32.32,0,0,0,190.94,215.36Z" style="fill:#263238"></path><path d="M192.66,215.89c0,.21-.26.39-.58.39s-.58-.18-.58-.39.26-.39.58-.39S192.66,215.68,192.66,215.89Z" style="fill:#fff;opacity:0.2"></path><ellipse cx="193.52" cy="217.08" rx="0.56" ry="0.39" style="fill:#fff;opacity:0.2"></ellipse><path d="M194.11,215.89c0,.21-.26.39-.58.39s-.58-.18-.58-.39.26-.39.58-.39S194.11,215.68,194.11,215.89Z" style="fill:#fff;opacity:0.2"></path><path d="M192.78,217.08c0,.22-.25.39-.56.39s-.56-.17-.56-.39.25-.39.56-.39S192.78,216.87,192.78,217.08Z" style="fill:#fff;opacity:0.2"></path><path d="M164.43,254.6c7.58-4.25,17.51-15.74,17.51-15.74,5.17.6,6.2-3.83,6.2-3.83s2-1,2.52.69c.93,3,1.81,2.83,1.81,2.83l.68-1.66,1.07-.83v-2.91c1.61,1.24,2.22,0,2.22,0L195,228.3c1.48.56,1.4-1.1,1.4-1.1a34.87,34.87,0,0,0-4-3.33c-1.37-.82-7.21-.82-8.08,0s-5.08,6.79-5.49,7.48c-.32.53-11,8.7-13,9.71-2.57,1.28-4.95,2.07-6.83,4.55" style="fill:#fff"></path><path d="M164.43,255.1a.52.52,0,0,1-.44-.25.51.51,0,0,1,.2-.68c7.41-4.16,17.27-15.53,17.37-15.64a.49.49,0,0,1,.44-.17c4.68.55,5.62-3.28,5.65-3.45a.54.54,0,0,1,.26-.33,2.91,2.91,0,0,1,2.2-.22,1.82,1.82,0,0,1,1,1.21,6.07,6.07,0,0,0,1.08,2.28l.47-1.15a.45.45,0,0,1,.16-.2l.87-.68v-2.67a.5.5,0,0,1,.8-.4,1.5,1.5,0,0,0,1.11.44.54.54,0,0,0,.26-.14l-1.33-4.61a.52.52,0,0,1,.14-.5.5.5,0,0,1,.52-.1.68.68,0,0,0,.53,0,.75.75,0,0,0,.18-.48,31.65,31.65,0,0,0-3.72-3.1c-1.28-.77-6.83-.67-7.48-.06-.83.79-5,6.69-5.4,7.36s-11.47,9-13.23,9.9c-.45.23-.89.44-1.32.64-2.07,1-3.85,1.82-5.33,3.77a.5.5,0,1,1-.79-.61c1.62-2.14,3.6-3.07,5.69-4.06l1.31-.63c2-1,12.24-8.84,12.83-9.55.37-.62,4.59-6.63,5.55-7.55,1.12-1,7.26-.93,8.69-.07a34.48,34.48,0,0,1,4.06,3.4.48.48,0,0,1,.15.33,1.86,1.86,0,0,1-.6,1.51,1.18,1.18,0,0,1-.6.23l1.18,4.1a.45.45,0,0,1,0,.36,1.56,1.56,0,0,1-1,.79,1.87,1.87,0,0,1-1.15-.13v2a.51.51,0,0,1-.19.4l-1,.75-.64,1.54a.51.51,0,0,1-.38.3c-.4.06-1.41-.12-2.37-3.18a.84.84,0,0,0-.45-.59,1.76,1.76,0,0,0-1.18.11,5.81,5.81,0,0,1-6.4,4c-1.4,1.59-10.36,11.67-17.47,15.66A.57.57,0,0,1,164.43,255.1Z" style="fill:#263238"></path><path d="M195,228.81a.51.51,0,0,1-.32-.12c-1-.85-2.67-2.2-3.08-2.44a14.87,14.87,0,0,0-3.5-.28.51.51,0,0,1-.5-.5.5.5,0,0,1,.5-.5c.77,0,3.33,0,4,.41s3,2.32,3.23,2.54a.52.52,0,0,1,.06.71A.5.5,0,0,1,195,228.81Z" style="fill:#263238"></path><path d="M194.22,233.65a.5.5,0,0,1-.49-.38l-.73-2.89c-.58-.32-2.3-1.23-3-1.64a5.07,5.07,0,0,0-1.88-.49.49.49,0,0,1-.47-.52.5.5,0,0,1,.52-.48,6.37,6.37,0,0,1,2.33.62c.82.48,3.14,1.71,3.17,1.73a.51.51,0,0,1,.25.32l.78,3.1a.5.5,0,0,1-.36.61Z" style="fill:#263238"></path><path d="M193.15,237.39a.49.49,0,0,1-.48-.39c-.32-1.44-.7-3.05-.86-3.49-.41-.2-2.07-.92-3.56-1.56a.5.5,0,0,1-.26-.65.49.49,0,0,1,.65-.27c2.39,1,3.69,1.6,3.84,1.71s.34.25,1.16,4a.49.49,0,0,1-.38.59Z" style="fill:#263238"></path><path d="M230.08,255c-7.37-4.61-17.52-16.11-17.52-16.11-5.17.6-6.2-3.83-6.2-3.83s-2-1-2.52.69c-.93,3-1.81,2.83-1.81,2.83l-.68-1.66-1.07-.83v-2.91c-1.61,1.24-2.22,0-2.22,0l1.4-4.85c-1.48.56-1.4-1.1-1.4-1.1a34.87,34.87,0,0,1,4-3.33c1.37-.82,7.21-.82,8.08,0s5.08,6.79,5.49,7.48c.32.53,11,8.7,13,9.71,2.57,1.28,4.95,2.07,6.82,4.55" style="fill:#fff"></path><path d="M230.08,255.47a.45.45,0,0,1-.27-.08c-6.9-4.32-16.05-14.44-17.45-16a5.82,5.82,0,0,1-6.41-4,1.76,1.76,0,0,0-1.18-.11.84.84,0,0,0-.45.59c-1,3.06-2,3.24-2.37,3.18a.51.51,0,0,1-.38-.3l-.64-1.54-1-.75a.51.51,0,0,1-.19-.4v-2a1.87,1.87,0,0,1-1.15.13,1.56,1.56,0,0,1-1-.79.45.45,0,0,1,0-.36l1.18-4.1a1.18,1.18,0,0,1-.6-.23,1.86,1.86,0,0,1-.6-1.51.48.48,0,0,1,.15-.33,34.48,34.48,0,0,1,4.06-3.4c1.43-.85,7.57-1,8.68.07.93.88,5.2,6.94,5.58,7.59.57.67,10.84,8.52,12.81,9.51l1.31.63c2.09,1,4.06,1.92,5.69,4.06a.5.5,0,0,1-.79.61c-1.48-1.95-3.26-2.79-5.33-3.77-.43-.2-.87-.41-1.32-.64-1.76-.88-12.77-9.11-13.23-9.9s-4.57-6.57-5.4-7.36c-.65-.61-6.2-.71-7.48.06a32.69,32.69,0,0,0-3.73,3.1.81.81,0,0,0,.19.48.68.68,0,0,0,.53,0,.5.5,0,0,1,.52.1.52.52,0,0,1,.14.5l-1.34,4.61a.57.57,0,0,0,.27.14,1.51,1.51,0,0,0,1.11-.44.5.5,0,0,1,.8.4v2.67l.87.68a.45.45,0,0,1,.16.2l.48,1.17a6.73,6.73,0,0,0,1.07-2.3,1.82,1.82,0,0,1,1-1.21,2.91,2.91,0,0,1,2.2.22.54.54,0,0,1,.26.33c0,.16,1,4,5.65,3.45a.51.51,0,0,1,.44.16c.1.12,10.19,11.5,17.4,16a.5.5,0,0,1-.26.92Z" style="fill:#263238"></path><path d="M199.46,228.81a.5.5,0,0,1-.39-.18.52.52,0,0,1,.06-.71c.27-.22,2.61-2.18,3.23-2.54s3.23-.41,4-.41a.5.5,0,0,1,.5.5.51.51,0,0,1-.5.5,14.87,14.87,0,0,0-3.5.28c-.41.24-2.07,1.59-3.08,2.44A.51.51,0,0,1,199.46,228.81Z" style="fill:#263238"></path><path d="M200.28,233.65l-.12,0a.5.5,0,0,1-.36-.61l.78-3.1a.51.51,0,0,1,.25-.32s2.35-1.25,3.17-1.73a6.37,6.37,0,0,1,2.33-.62.51.51,0,0,1,.52.48.49.49,0,0,1-.47.52,5.07,5.07,0,0,0-1.88.49c-.7.41-2.42,1.32-3,1.64l-.73,2.89A.5.5,0,0,1,200.28,233.65Z" style="fill:#263238"></path><path d="M201.35,237.39h-.11a.49.49,0,0,1-.38-.59c.82-3.8,1-3.92,1.16-4s1.45-.69,3.84-1.71a.49.49,0,0,1,.65.27.5.5,0,0,1-.26.65c-1.47.63-3.11,1.34-3.56,1.56-.16.45-.55,2.06-.86,3.49A.49.49,0,0,1,201.35,237.39Z" style="fill:#263238"></path><path d="M204.69,166.75s-1,2.17-6.23,3.06-17.13,6.49-19.5,15.51-1.88,10.21-1.88,10.21-2-16.91-.05-23.93S195.71,153.69,204.69,166.75Z" style="fill:#263238"></path><path d="M214.53,299.25a16.65,16.65,0,0,1-14.62,0c-.19,6.11-3.78,44.91-3.45,49.49s2.84,19.55,3.45,27.46-2.63,18.52-2.56,51.75c0,3.05-12.21,0-12.21,0s-8.39-44.23-8.28-51,1.87-27.3,0-35.23-12.38-27.56-10-50.52c1.55-15.05,10.91-25.29,13-32.88,0,0,3.22-2.11,17.61-2.11,14.57,0,18,2.11,18,2.11A227.44,227.44,0,0,1,223,295.29" style="fill:#FFC100"></path><path d="M194.11,429.79a45.94,45.94,0,0,1-9.09-1.36.51.51,0,0,1-.37-.39c-.34-1.81-8.4-44.36-8.29-51.06,0-1.63.15-4.08.29-6.91.45-8.86,1.12-22.24-.28-28.2a74.29,74.29,0,0,0-2.47-7.42c-3.73-10.2-9.36-25.62-7.54-43.26,1-9.77,5.29-17.56,8.72-23.82a47.33,47.33,0,0,0,4.3-9.14.45.45,0,0,1,.2-.28c.14-.09,3.51-2.2,17.89-2.2,14.54,0,18.1,2.1,18.25,2.19a.46.46,0,0,1,.21.28,230.11,230.11,0,0,1,7.6,37,.5.5,0,0,1-.44.55.49.49,0,0,1-.55-.44,231.12,231.12,0,0,0-7.5-36.63c-.81-.37-5-2-17.57-2-12.34,0-16.4,1.58-17.19,2a50,50,0,0,1-4.32,9.14c-3.39,6.18-7.62,13.87-8.61,23.44-1.8,17.42,3.79,32.7,7.49,42.82a75.93,75.93,0,0,1,2.51,7.53c1.43,6.1.75,19.57.3,28.48-.14,2.83-.27,5.27-.29,6.88-.11,6.3,7.46,46.54,8.22,50.54,3.7.89,9.71,1.85,11.06.8a.45.45,0,0,0,.21-.39,356.4,356.4,0,0,1,1.94-40.07c.51-5.17.85-8.59.62-11.64-.34-4.39-1.27-10.94-2.08-16.72-.66-4.67-1.23-8.69-1.37-10.75-.2-2.78,1-17.65,2.06-30.77.7-8.76,1.31-16.33,1.39-18.76a.5.5,0,0,1,.25-.43.52.52,0,0,1,.5,0,16.28,16.28,0,0,0,14.16,0,.49.49,0,0,1,.66.24.5.5,0,0,1-.24.67,17.31,17.31,0,0,1-14.37.33c-.15,3-.71,10-1.36,18-1,12.44-2.25,27.92-2.06,30.62.15,2,.71,6,1.37,10.68.82,5.79,1.74,12.36,2.08,16.78.25,3.14-.1,6.59-.62,11.82a357.87,357.87,0,0,0-1.93,40,1.47,1.47,0,0,1-.59,1.18A5.48,5.48,0,0,1,194.11,429.79Z" style="fill:#263238"></path><path d="M184.12,439.19c-1,4.58,0,12.49,0,12.49s13.2,0,21.9-2a16.13,16.13,0,0,0,0-6.71c-.79-3.59-5.86-11.82-7.28-21.35,0,0-4.42.55-6.47,3.62,0,0-3.75-3.62-8.08-1.17C184.19,424.11,185.17,434.61,184.12,439.19Z" style="fill:#757575"></path><path d="M184.14,452.18h0a.49.49,0,0,1-.49-.43c0-.33-1-8.06,0-12.67,1-4.46.06-14.82.05-14.93a.5.5,0,0,1,.25-.48c3.72-2.1,7.08,0,8.24.88,2.24-2.83,6.31-3.37,6.5-3.39a.49.49,0,0,1,.55.42c.92,6.16,3.4,11.81,5.21,15.94a34.92,34.92,0,0,1,2.07,5.39,16.49,16.49,0,0,1,0,6.93.53.53,0,0,1-.38.37C197.6,452.16,184.63,452.18,184.14,452.18Zm.58-27.79c.16,1.86.85,10.71-.11,14.91h0c-.88,3.83-.24,10.17,0,11.88,2.33,0,13.38-.19,21-1.88a16,16,0,0,0-.07-6.18,34,34,0,0,0-2-5.2c-1.78-4.07-4.21-9.6-5.2-15.68-1.16.24-4.12,1.05-5.63,3.31a.45.45,0,0,1-.36.22.49.49,0,0,1-.4-.13C191.79,425.5,188.54,422.46,184.72,424.39Zm-.6,14.8h0Z" style="fill:#263238"></path><path d="M184.12,451.68s2.26-3.46,10.9-4.84,10.9,1,11,2.88C206,449.72,194.47,453.17,184.12,451.68Z" style="fill:#263238"></path><path d="M193.82,428.45a.54.54,0,0,1-.21-.05l-4.42-2.08a.5.5,0,0,1-.24-.66.5.5,0,0,1,.67-.24l4.41,2.07a.5.5,0,0,1,.24.67A.49.49,0,0,1,193.82,428.45Z" style="fill:#263238"></path><path d="M191.61,428.78a.52.52,0,0,1-.36-.16.5.5,0,0,1,0-.71l3.46-3.29a.49.49,0,0,1,.7,0,.5.5,0,0,1,0,.71l-3.46,3.3A.52.52,0,0,1,191.61,428.78Z" style="fill:#263238"></path><path d="M194.29,431.74a.54.54,0,0,1-.27-.07l-4.08-2.5a.5.5,0,1,1,.52-.86l4.09,2.51a.49.49,0,0,1,.16.68A.48.48,0,0,1,194.29,431.74Z" style="fill:#263238"></path><path d="M192.7,431.74a.5.5,0,0,1-.38-.82c3-3.49,3.25-3.55,3.43-3.59a.49.49,0,0,1,.6.36.49.49,0,0,1-.26.57c-.3.24-1.75,1.85-3,3.31A.52.52,0,0,1,192.7,431.74Z" style="fill:#263238"></path><path d="M195,433.92l-.14,0-4.82-1.39a.48.48,0,0,1-.34-.61.5.5,0,0,1,.62-.35l4.81,1.39a.5.5,0,0,1,.35.62A.51.51,0,0,1,195,433.92Z" style="fill:#263238"></path><path d="M192.7,434.58a.52.52,0,0,1-.41-.22.49.49,0,0,1,.13-.69c1.7-1.19,3.59-2.54,3.79-2.75a.48.48,0,0,1,.69-.09.51.51,0,0,1,.09.71,42.56,42.56,0,0,1-4,2.95A.52.52,0,0,1,192.7,434.58Z" style="fill:#263238"></path><path d="M195.34,435.9h-.06l-5.14-.59a.5.5,0,0,1-.44-.55.5.5,0,0,1,.55-.44l5.15.59a.5.5,0,0,1-.06,1Z" style="fill:#263238"></path><path d="M193.34,436.23a.51.51,0,0,1-.45-.29.5.5,0,0,1,.24-.67l3.51-1.65a.51.51,0,0,1,.67.25.49.49,0,0,1-.24.66l-3.51,1.65A.59.59,0,0,1,193.34,436.23Z" style="fill:#263238"></path><path d="M188.35,439.92A.5.5,0,0,1,188,439c3.51-2.77,10.54-3.19,10.83-3.21a.48.48,0,0,1,.53.47.5.5,0,0,1-.47.53c-.07,0-7,.42-10.27,3A.51.51,0,0,1,188.35,439.92Z" style="fill:#263238"></path><path d="M209.33,261.66a7.49,7.49,0,0,0-.66-3.51,96.37,96.37,0,0,0-11.2-.69,91.33,91.33,0,0,0-10.09.57,16.93,16.93,0,0,0-.43,3.89,136.14,136.14,0,0,1,22.42.3C209.35,262,209.34,261.85,209.33,261.66Z" style="fill:#263238"></path><path d="M210.32,261.42l0,.89c3.93.38,6.4.77,6.4.77l-.89-3.8s-2.35-.51-6-1A10,10,0,0,1,210.32,261.42Z" style="fill:#263238"></path><path d="M186.33,258.16c-4.06.5-6.64,1.09-6.64,1.09L178.51,263a74.83,74.83,0,0,1,7.44-1A19.69,19.69,0,0,1,186.33,258.16Z" style="fill:#263238"></path><rect x="194.77" y="257.46" width="7.29" height="4.48" rx="1.12" style="fill:#fff"></rect><path d="M201,262.44h-5.06a1.62,1.62,0,0,1-1.62-1.62v-2.24a1.62,1.62,0,0,1,1.62-1.62H201a1.62,1.62,0,0,1,1.62,1.62v2.24A1.62,1.62,0,0,1,201,262.44ZM195.89,258a.62.62,0,0,0-.62.62v2.24a.62.62,0,0,0,.62.62H201a.62.62,0,0,0,.62-.62v-2.24A.62.62,0,0,0,201,258Z" style="fill:#263238"></path><path d="M213.3,309.17h-.08c-.32-.05-8-1.34-15.21-11.89-4.75-6.93-15-11.11-15.12-11.16a.5.5,0,1,1,.37-.92c.44.17,10.65,4.33,15.57,11.52,6.95,10.15,14.47,11.45,14.54,11.46a.5.5,0,0,1-.07,1Z" style="fill:#263238"></path><path d="M198.94,293.52h0a.49.49,0,0,1-.45-.54s.35-4.38.51-9.77-1-18.86-1-19a.5.5,0,0,1,.45-.54.51.51,0,0,1,.55.45c0,.14,1.19,13.69,1,19.12s-.51,9.78-.52,9.82A.49.49,0,0,1,198.94,293.52Z" style="fill:#263238"></path><path d="M201.35,280.05a.5.5,0,0,1-.45-.27.49.49,0,0,1,.22-.67c2.1-1.06.95-9.66-.26-14.83a.5.5,0,0,1,.37-.6.49.49,0,0,1,.6.37c.34,1.45,3.23,14.2-.26,15.95A.44.44,0,0,1,201.35,280.05Z" style="fill:#263238"></path><path d="M174.41,270.14a.5.5,0,0,1-.07-1c.06,0,6.09-.93,7.61-5.14a.5.5,0,1,1,.94.34c-1.72,4.77-8.13,5.75-8.4,5.79Z" style="fill:#263238"></path><path d="M220.11,277.67a.44.44,0,0,1-.22-.05c-3-1.49-6.1-12.11-6.44-13.32a.5.5,0,1,1,1-.27c.88,3.16,3.68,11.6,5.91,12.69a.5.5,0,0,1,.23.67A.49.49,0,0,1,220.11,277.67Z" style="fill:#263238"></path><path d="M206.69,348.52c-4.78,0-8.79-9.58-9-10a.49.49,0,0,1,.27-.65.5.5,0,0,1,.65.27c1.09,2.62,4.63,9.37,8,9.37h.1a.51.51,0,0,1,.52.48.5.5,0,0,1-.48.52Z" style="fill:#263238"></path><path d="M186.22,343.37c-2.84,0-7-4.16-7.46-4.68a.5.5,0,0,1,0-.71.51.51,0,0,1,.71,0c1.9,2,5.54,4.89,7.19,4.31a.52.52,0,0,1,.64.32.5.5,0,0,1-.31.63A2.54,2.54,0,0,1,186.22,343.37Z" style="fill:#263238"></path><path d="M186.21,362.36c-1.8,0-4.44-2.16-5-2.67a.5.5,0,0,1-.06-.7.5.5,0,0,1,.71-.06c1.76,1.49,4.06,2.82,4.72,2.35,1.09-.78,5.2-6,6.69-7.92a.51.51,0,0,1,.7-.1.5.5,0,0,1,.09.7c-.56.73-5.49,7.13-6.89,8.13A1.55,1.55,0,0,1,186.21,362.36Z" style="fill:#263238"></path><path d="M186.84,413.61h-.05a.5.5,0,0,1-.45-.55c1.18-11.84,7.81-23.23,7.88-23.34a.5.5,0,0,1,.86.5c-.07.11-6.59,11.32-7.75,22.94A.49.49,0,0,1,186.84,413.61Z" style="fill:#263238"></path><path d="M171.67,226h-.1a.5.5,0,0,1-.39-.59c0-.25,1.24-5.94,1.9-8a6.57,6.57,0,0,0-.5.44.5.5,0,0,1-.7-.72c1.36-1.32,1.85-1,2-.91.53.34.28,1.1.17,1.43-.65,1.91-1.89,7.88-1.9,7.94A.5.5,0,0,1,171.67,226Z" style="fill:#263238"></path><path d="M223.32,227.39a.49.49,0,0,1-.49-.41c0-.06-1.08-6-2-7.77a1.37,1.37,0,0,1,0-1.57c.58-.68,1.92-.33,2.32-.21a.5.5,0,0,1,.33.62.48.48,0,0,1-.62.33,2.15,2.15,0,0,0-1.27-.09,1,1,0,0,0,.15.48c.94,1.94,2,7.78,2,8a.5.5,0,0,1-.4.58Z" style="fill:#263238"></path><path d="M189,255.47a.52.52,0,0,1-.46-.29.5.5,0,0,1,.25-.66,36.45,36.45,0,0,0,13.71-10.81.5.5,0,0,1,.83.56,36.76,36.76,0,0,1-14.12,11.15A.41.41,0,0,1,189,255.47Z" style="fill:#263238"></path><g style="opacity:0.2"><path d="M170,186.53a.49.49,0,0,1-.44-.26.5.5,0,0,1,.19-.68c2-1.12,2.31-1.7,3.66-4.16.58-1.07,1.3-2.39,2.4-4.21,2.77-4.57,8.87-6.15,14.78-7.69a65.53,65.53,0,0,0,6.76-2c6.73-2.55,6.48-6.67,6.47-6.85a.51.51,0,0,1,.46-.54.51.51,0,0,1,.54.45c0,.21.37,5-7.12,7.88a69,69,0,0,1-6.86,2c-5.71,1.48-11.62,3-14.17,7.24-1.09,1.8-1.81,3.11-2.39,4.17-1.38,2.53-1.8,3.3-4,4.55A.44.44,0,0,1,170,186.53Z" style="fill:#fff"></path><path d="M176.8,169.52a.5.5,0,0,1-.27-.91c.13-.1,3.44-2.25,11.55-3.25,7.81-1,13.7-7.13,13.76-7.19a.5.5,0,0,1,.71,0,.5.5,0,0,1,0,.71c-.25.27-6.19,6.49-14.36,7.5-7.84,1-11.1,3.07-11.13,3.09A.57.57,0,0,1,176.8,169.52Z" style="fill:#fff"></path><path d="M213,175.44h-.09A5.57,5.57,0,0,1,209.2,173c-2.31-3.43-1.17-9.13-1.12-9.37a.49.49,0,0,1,.59-.38.5.5,0,0,1,.39.59s-1.11,5.52,1,8.61a4.58,4.58,0,0,0,3.08,2,.5.5,0,0,1-.09,1Z" style="fill:#fff"></path><path d="M223.32,191a.52.52,0,0,1-.21,0c-6.1-2.75-8.38-9.37-8.47-9.65a.5.5,0,0,1,1-.32c0,.07,2.24,6.49,7.93,9.06a.5.5,0,0,1-.2,1Z" style="fill:#fff"></path></g></g><g id="freepik--character-2--inject-2"><polygon points="336.37 381.84 336.37 452.05 342.79 452.05 342.79 382.61 336.37 381.84" style="fill:#263238"></polygon><polygon points="391.95 381.84 391.95 452.05 398.36 452.05 398.36 382.61 391.95 381.84" style="fill:#263238"></polygon><path d="M429.26,373.37c-.66,3.2-1.4,5.31-2.22,6.07-8.24,7.57-21.53,9-35.18,6.45s-50.05,1.37-53.77,2.28-12.68,5.72-14.73-4.52,11-20.37,11-20.37l46.4-1.08,20.91-.49c11.57-22.39,3.82-86.53,7.61-94.37s16.82-36.34,25.45-39.07C434.71,228.27,435.16,344.59,429.26,373.37Z" style="fill:#999"></path><path d="M330,390.59a6.9,6.9,0,0,1-3.53-.87c-1.79-1-3-3.05-3.58-6-2.08-10.42,10.62-20.44,11.16-20.86a.48.48,0,0,1,.3-.11l67-1.56c7.16-14.25,6.71-45.08,6.38-67.64-.19-13.13-.34-23.5,1.09-26.46.29-.6.64-1.32,1-2.15,5-10.35,16.54-34.59,24.72-37.18a.51.51,0,0,1,.65.48c0,1.16.38,116.7-5.46,145.2h0c-.71,3.45-1.49,5.52-2.37,6.34-7.73,7.1-20.37,9.43-35.61,6.57-13.42-2.5-49.42,1.26-53.56,2.28-.53.12-1.17.33-1.91.58A21.21,21.21,0,0,1,330,390.59Zm4.54-26.81c-1.33,1.07-12.52,10.5-10.67,19.77.53,2.63,1.57,4.41,3.1,5.31,2.63,1.53,6.33.31,9-.57.76-.25,1.41-.47,2-.61,4.18-1,40.45-4.81,54-2.28,14.93,2.8,27.26.55,34.75-6.33.49-.45,1.25-1.83,2.07-5.8h0c5.58-27.22,5.47-134.36,5.44-144.27-7.76,3.56-19.12,27.31-23.47,36.41l-1,2.15c-1.33,2.75-1.17,13.53-1,26,.33,22.8.79,54-6.63,68.37a.49.49,0,0,1-.43.27Zm94.74,9.59h0Z" style="fill:#263238"></path><path d="M435.78,370.46c-.66,3.2-4.4,7.47-5.22,8.23-8.24,7.57-25.05,9.76-38.7,7.2s-50.05,1.37-53.77,2.28-12.68,5.72-14.73-4.52,11-20.37,11-20.37l46.4-1.08c6.77,1.45,11.12,2.46,11.12,2.46Z" style="fill:#263238"></path><path d="M345.37,385.53v66.52h8.31V380l-4.86,1.17A4.5,4.5,0,0,0,345.37,385.53Z" style="fill:#757575"></path><path d="M353.68,452.55h-8.31a.5.5,0,0,1-.5-.5V385.53a5,5,0,0,1,3.83-4.86l4.86-1.17a.51.51,0,0,1,.43.1.49.49,0,0,1,.19.39v72.06A.5.5,0,0,1,353.68,452.55Zm-7.81-1h7.31V380.62l-4.24,1a4,4,0,0,0-3.07,3.88Z" style="fill:#263238"></path><path d="M414.37,380v72.06h8.31V382A15.44,15.44,0,0,1,414.37,380Z" style="fill:#757575"></path><path d="M422.68,452.55h-8.31a.5.5,0,0,1-.5-.5V380a.5.5,0,0,1,.25-.43.5.5,0,0,1,.5,0,15.06,15.06,0,0,0,8,1.93.5.5,0,0,1,.55.5v70.06A.5.5,0,0,1,422.68,452.55Zm-7.81-1h7.31v-69a16.09,16.09,0,0,1-7.31-1.68Z" style="fill:#263238"></path><path d="M308.09,324.28s-44.68,7.48-53,23.47S275.89,403,277.85,407a37.33,37.33,0,0,1,2.67,9.89s3.65,2.84,3.29,5.37-1.51,7.11-1.51,7.11l5.3,7.28s-9,6.2-16.08,7-4,7.82-4,7.82H309s8.71-41.29,6.34-48.85-24.79-53-24.79-53Z" style="fill:#263238"></path><path d="M363.75,214c-2,.81-17.87,20-17.87,20a13.94,13.94,0,0,0-2-6.3,4,4,0,0,0-1.64-1.53c-2.56-1.39-6.64-.94-7.63-.8l-.23,0c3.17-14.44,21.27-29.68,21.49-23.58S363.75,214,363.75,214Z" style="fill:#fff"></path><path d="M345.88,234.53a.51.51,0,0,1-.17,0,.5.5,0,0,1-.33-.47,13.58,13.58,0,0,0-2-6.05,3.51,3.51,0,0,0-1.45-1.34c-2.47-1.34-6.53-.86-7.32-.74l-.24,0a.53.53,0,0,1-.43-.16.52.52,0,0,1-.12-.45c2.73-12.45,16.56-25.7,20.92-25.34a1.7,1.7,0,0,1,1.56,1.85c.22,5.8,7.65,11.71,7.73,11.77a.49.49,0,0,1-.12.85c-1.4.56-11.58,12.5-17.67,19.9A.5.5,0,0,1,345.88,234.53Zm-8.64-9.81a11.38,11.38,0,0,1,5.2,1,4.56,4.56,0,0,1,1.83,1.72,16.19,16.19,0,0,1,2,5.31C349.4,229,359.8,216.52,362.92,214c-1.76-1.51-7.39-6.7-7.59-12.09,0-.74-.33-.87-.65-.9-3.5-.3-16.63,11.7-19.69,23.87C335.51,224.79,336.31,224.72,337.24,224.72Z" style="fill:#263238"></path><path d="M342.2,226.2c-2.56-1.39-6.64-.94-7.63-.8a26.24,26.24,0,0,1,.91-2.91l9.76-3.29S345.78,222.4,342.2,226.2Z" style="fill:#263238"></path><path d="M295.81,289.45v11.07s-3.16,2.5-4.22,2.63c-.22,0-1,.05-2,.05-3.86,0-11.78-.05-11.78-.05s-6-15.39-4.81-15.8,14.06-3.4,16.62-2.92a6.51,6.51,0,0,1,2.56,1.37A26.84,26.84,0,0,1,295.81,289.45Z" style="fill:#fff"></path><path d="M287.16,303.71c-4,0-9.29-.06-9.36-.06a.51.51,0,0,1-.46-.32c-1.32-3.39-5.59-14.59-4.9-16.09a.74.74,0,0,1,.4-.36c1.23-.44,14.22-3.44,16.87-2.94a6.79,6.79,0,0,1,2.78,1.47,26.58,26.58,0,0,1,3.71,3.73.51.51,0,0,1,.11.31v11.07a.49.49,0,0,1-.19.39c-.55.43-3.33,2.6-4.47,2.74-.37.05-1.67.05-2.06.05Zm-9-1.06c1.56,0,8.08.08,11.43.05,1.1,0,1.78,0,1.94-.05a15.09,15.09,0,0,0,3.79-2.37V289.63a26.75,26.75,0,0,0-3.44-3.44,6.15,6.15,0,0,0-2.34-1.27c-2.26-.41-14.21,2.25-16.19,2.85C273.24,289.08,275.64,296.18,278.15,302.65Zm-5-14.83Z" style="fill:#263238"></path><g style="clip-path:url(#freepik--clip-path-18--inject-2)"><path d="M292.18,285.8c-.91,3.55-1.66,6.52-1.66,6.52a6.35,6.35,0,0,0-2.36,5.14,15.06,15.06,0,0,0,1.43,5.74c-3.86,0-11.78-.05-11.78-.05s-6-15.39-4.81-15.8,14.06-3.4,16.62-2.92A6.51,6.51,0,0,1,292.18,285.8Z" style="fill-opacity:0.7000000000000001;opacity:0.30000000000000004"></path></g><polygon points="277.81 275.26 278.74 267.09 283.22 263.86 284.54 265.37 280.78 268.08 279.86 275.59 277.81 275.26" style="fill:#fff"></polygon><path d="M279.86,276.09h-.08l-2-.33a.51.51,0,0,1-.41-.55l.92-8.18a.49.49,0,0,1,.2-.35l4.49-3.23a.5.5,0,0,1,.67.08l1.32,1.52a.51.51,0,0,1,.12.38.53.53,0,0,1-.21.35l-3.58,2.58-.9,7.29a.46.46,0,0,1-.19.34A.49.49,0,0,1,279.86,276.09Zm-1.5-1.24,1.06.17.86-7a.53.53,0,0,1,.21-.35l3.31-2.38-.66-.76-3.93,2.83Z" style="fill:#263238"></path><path d="M290.8,277.31v3H289L287.91,286l-3.64,18.82a35.79,35.79,0,0,1-14.77-1.18l-.09-1.49-1.55-24.55h-1.19l1.19-3A36.65,36.65,0,0,1,290.8,277.31Z" style="fill:#FFC100"></path><path d="M279.68,305.56a33.37,33.37,0,0,1-10.35-1.47.5.5,0,0,1-.33-.44l-.09-1.49-1.52-24.08h-.72a.51.51,0,0,1-.47-.68l1.19-3a.52.52,0,0,1,.38-.31A37.6,37.6,0,0,1,291,276.87a.51.51,0,0,1,.26.44v3a.5.5,0,0,1-.5.5h-1.37l-4.67,24.12a.51.51,0,0,1-.43.41A43.15,43.15,0,0,1,279.68,305.56Zm-9.7-2.31a36.6,36.6,0,0,0,13.87,1.09l4.68-24.17a.49.49,0,0,1,.49-.4h1.28v-2.15A36.78,36.78,0,0,0,268.22,275l-.82,2.09h.46a.51.51,0,0,1,.5.47Z" style="fill:#263238"></path><g style="clip-path:url(#freepik--clip-path-19--inject-2)"><path d="M290.8,277.31v3H289s-5.37-3-10.35-3-10.81.34-10.81.34h-1.19l1.19-3A36.65,36.65,0,0,1,290.8,277.31Z" style="fill-opacity:0.7000000000000001;opacity:0.30000000000000004"></path><path d="M287.91,286l-3.64,18.82a35.79,35.79,0,0,1-14.77-1.18l-.09-1.49a20.49,20.49,0,0,1,13.06.74l1.86-11.47s-8.81-4.7-7.51-7.76C277.85,281.23,285,284.49,287.91,286Z" style="fill-opacity:0.7000000000000001;opacity:0.30000000000000004"></path></g><path d="M288.17,280.12a.55.55,0,0,1-.25-.07c-6.05-3.38-18.58-2.39-18.7-2.38a.51.51,0,0,1-.54-.45.49.49,0,0,1,.45-.54c.53-.05,12.95-1,19.28,2.5a.49.49,0,0,1,.19.68A.51.51,0,0,1,288.17,280.12Z" style="fill:#263238"></path><path d="M289.22,295c-1.38-.6-3.82-7.63-3.82-7.63s-6.6-.35-8.58-3.71,3.7-1.39,4.69-1,6.92-.6,8.11,0,4.95,4.85,4.95,4.85l19.48,4.37,8.21,1.84,5.1-10.67a18.4,18.4,0,0,1,2.8-6.46c2-2.5,6.93-25.78,8.89-29.73s9.77-15.39,9.77-15.39l8.64,32.32s-5.69,36.48-14.19,45.54c-6.54,7-23.84,4.29-37.61-2.08a57.61,57.61,0,0,1-11.09-6.59" style="fill:#fff"></path><path d="M330.61,313.93c-7.72,0-17.07-2.49-25.16-6.24a58.33,58.33,0,0,1-11.19-6.64.53.53,0,0,1-.09-.71.52.52,0,0,1,.71-.09,57.31,57.31,0,0,0,11,6.54c13.54,6.26,30.61,9,37,2.19,8.07-8.61,13.69-43,14-45.17l-8.33-31.16c-1.88,2.77-7.52,11.18-9.12,14.42-.87,1.76-2.43,7.75-3.95,13.55-2.33,9-3.93,14.93-5,16.27a18,18,0,0,0-2.7,6.25.56.56,0,0,1,0,.12l-5.1,10.67a.5.5,0,0,1-.56.27L294.46,288a.54.54,0,0,1-.26-.16c-1.49-1.68-4-4.33-4.8-4.73-.54-.27-2.77-.11-4.4,0a12.22,12.22,0,0,1-3.67,0c-1.73-.7-4-1.19-4.39-.76-.06.07-.07.37.31,1,1.82,3.08,8.11,3.46,8.18,3.46a.48.48,0,0,1,.44.34c1.14,3.28,2.82,7,3.55,7.33a.5.5,0,0,1-.4.92c-1.39-.61-3.28-5.63-4-7.62-1.42-.12-6.8-.79-8.65-3.93q-.84-1.44-.21-2.19c1.09-1.26,5.07.3,5.52.49a16.87,16.87,0,0,0,3.23-.08c2.5-.18,4.19-.27,4.92.09,1.15.58,4.28,4.05,5,4.85L322,293.13l4.9-10.25a18.64,18.64,0,0,1,2.89-6.61c1-1.28,3-9,4.82-15.9,1.59-6.12,3.1-11.9,4-13.74,1.95-3.95,9.49-15,9.81-15.45a.5.5,0,0,1,.89.15l8.64,32.32a.5.5,0,0,1,0,.21c-.23,1.49-5.81,36.73-14.32,45.8C340.82,312.66,336.13,313.93,330.61,313.93Z" style="fill:#263238"></path><g style="clip-path:url(#freepik--clip-path-20--inject-2)"><path d="M357.46,263.78s-5.69,36.48-14.19,45.54c-6.54,7-23.84,4.29-37.61-2.08a20.3,20.3,0,0,0,8.39-15.37l8.21,1.84,5.1-10.67a18.4,18.4,0,0,1,2.8-6.46c2-2.5,6.93-25.78,8.89-29.73s9.77-15.39,9.77-15.39Z" style="fill-opacity:0.7000000000000001;opacity:0.30000000000000004"></path></g><path d="M347.06,232.34s-10.09,11.14-10.72,14.9-8.4,29.11-9.07,29.79-5.83,8.33-5.61,12.42c0,0,15.21,9.5,18.43,13.76s13.22-30.06,13.22-42.72S347.06,232.34,347.06,232.34Z" style="fill:#FFC100"></path><path d="M340.71,304.08a1.25,1.25,0,0,1-1-.57c-3.13-4.13-18.14-13.54-18.3-13.63a.54.54,0,0,1-.23-.4c-.23-4.31,5.1-12.14,5.75-12.8.68-1.05,8.27-25.6,8.94-29.52s10.43-14.7,10.84-15.16a.52.52,0,0,1,.46-.15.51.51,0,0,1,.38.3c.06.16,6.28,15.73,6.28,28.34,0,11.41-8.33,42.05-12.69,43.52A1.53,1.53,0,0,1,340.71,304.08Zm-18.56-14.91c2,1.25,15.28,9.69,18.34,13.74.15.21.23.17.31.15,3.26-1.09,12-30,12-42.57,0-10.84-4.69-24-5.92-27.21-3.56,4-9.6,11.33-10.06,14.05-.55,3.28-8.29,29.12-9.2,30C327.09,277.92,322.16,285.15,322.15,289.17Z" style="fill:#263238"></path><g style="clip-path:url(#freepik--clip-path-21--inject-2)"><path d="M347.06,232.34s-10.09,11.14-10.72,14.9-8.4,29.11-9.07,29.79-5.83,8.33-5.61,12.42c0,0,15.21,9.5,18.43,13.76s13.22-30.06,13.22-42.72S347.06,232.34,347.06,232.34Z" style="fill-opacity:0.7000000000000001;opacity:0.30000000000000004"></path></g><path d="M342.45,273a.5.5,0,0,1-.41-.22c-3.28-4.71-4-12.55-4.07-12.88a.5.5,0,1,1,1-.09c0,.07.77,7.91,3.89,12.4a.51.51,0,0,1-.12.7A.52.52,0,0,1,342.45,273Z" style="fill:#263238"></path><path d="M328.74,302.75a.51.51,0,0,1-.48-.36c0-.05-1.68-5.66-6.24-8.24a.5.5,0,1,1,.49-.87c4.92,2.78,6.64,8.59,6.71,8.84a.48.48,0,0,1-.34.61A.32.32,0,0,1,328.74,302.75Z" style="fill:#263238"></path><path d="M342.09,451.88h-9.15c-6.66,0-9.46-2.06-9.46-2.06s-9.41,2-15.9,2c-5.26,0-13.75.59-20-.27a23.46,23.46,0,0,1-3.95-.86v-2c-2.08-6.33,1.19-8.65,9.93-11.34a29.92,29.92,0,0,0,10.81-5.61,24.16,24.16,0,0,0,7.53-12.26s23.66.45,27.13,5.37S342.09,451.88,342.09,451.88Z" style="fill:#fff"></path><path d="M296.32,452.55a66.59,66.59,0,0,1-8.81-.47,22,22,0,0,1-4-.88.51.51,0,0,1-.34-.47v-1.88c-.82-2.52-.81-4.44,0-6,1.38-2.67,5-4.22,10.28-5.86A29.25,29.25,0,0,0,304,431.44a23.58,23.58,0,0,0,7.38-12,.49.49,0,0,1,.48-.36h0c1,0,23.95.51,27.53,5.58s3.17,26.34,3.15,27.25a.51.51,0,0,1-.5.49h-9.15c-5.85,0-8.81-1.56-9.56-2-1.43.3-9.86,2-15.8,2-1.4,0-3,0-4.78.08C300.79,452.5,298.56,452.55,296.32,452.55Zm-12.19-2.19a22.21,22.21,0,0,0,3.52.73,102.75,102.75,0,0,0,15.13.35c1.76,0,3.39-.08,4.8-.08,6.37,0,15.7-2,15.79-2a.48.48,0,0,1,.4.09s2.79,2,9.17,2h8.65c0-3.27.09-21.83-3-26.16-2.67-3.8-19.56-5-26.34-5.16a24.37,24.37,0,0,1-7.59,12.14,30.22,30.22,0,0,1-11,5.71c-4.93,1.52-8.46,3-9.68,5.36-.7,1.36-.68,3.06.07,5.34a.45.45,0,0,1,0,.16Z" style="fill:#263238"></path><g style="clip-path:url(#freepik--clip-path-22--inject-2)"><path d="M342.09,451.88h-9.15c-6.66,0-9.46-2.06-9.46-2.06s-9.41,2-15.9,2c-5.26,0-13.75.59-20-.27l1.24-2.47c.32-4.38,5.51-3.45,14.8-3.63s14.21-3.85,14.21-3.85l6.94,3.35s10.07,1.12,12.06,0,0-9.52,0-9.52-17,2.81-18.56,2.36c-1.15-.33-9.58-4.08-13.9-6a24.16,24.16,0,0,0,7.53-12.26s23.66.45,27.13,5.37S342.09,451.88,342.09,451.88Z" style="fill-opacity:0.7000000000000001;opacity:0.2"></path></g><path d="M300,450c-6.61,0-16.27-.74-16.38-.75a.5.5,0,0,1-.46-.54.5.5,0,0,1,.54-.46c.13,0,12.82,1,19,.7s16.68-2.5,16.78-2.53a.5.5,0,0,1,.59.39.49.49,0,0,1-.38.59c-.11,0-10.71,2.25-16.94,2.55C301.9,450,301,450,300,450Z" style="fill:#263238"></path><path d="M341.13,450.05c-5.68,0-16-2.52-16.48-2.63a.5.5,0,1,1,.24-1c.11,0,12,2.92,17.18,2.58a.48.48,0,0,1,.53.46.5.5,0,0,1-.47.53C341.82,450,341.48,450.05,341.13,450.05Z" style="fill:#263238"></path><path d="M310,436a2.09,2.09,0,0,1-1.52-.63c-1.22-1.22-4.45-1.36-5.59-1.3a.51.51,0,0,1-.52-.48.49.49,0,0,1,.47-.52c.19,0,4.57-.18,6.35,1.59,1.24,1.25,4-1.42,4.07-1.45a.5.5,0,0,1,.7.71C313.82,434,311.8,436,310,436Z" style="fill:#263238"></path><path d="M303.52,439.44h-.06a1.3,1.3,0,0,1-1-.57c-.76-1.09-3.15-1.73-4-1.89a.5.5,0,1,1,.18-1c.14,0,3.49.65,4.64,2.29a.3.3,0,0,0,.26.15c.65,0,1.81-1,2.64-1.88a7.52,7.52,0,0,0-3.48-1.55.5.5,0,0,1-.47-.53.47.47,0,0,1,.52-.47c2.12.11,4.38,2,4.48,2.1a.5.5,0,0,1,.06.7C306.88,437.25,305,439.44,303.52,439.44Z" style="fill:#263238"></path><path d="M359.16,203.14c3.93-11.85.39-26-16.82-35.2-11.19-6-31.34,10.94-28.61,21.53s7.35,14.07,7.35,14.07-5.11,7.62-4,10c.49,1,3.6,1.08,3.6,1.08a12.16,12.16,0,0,0,1.63,4.57l1.39-.43s2.61,10.12,8.69,8.91,14.73-6.47,14.32-11.36" style="fill:#fff"></path><path d="M331.38,228.23c-5,0-7.42-6.91-8-8.88l-.91.28a.49.49,0,0,1-.57-.22,13,13,0,0,1-1.63-4.35c-1.07-.05-3.12-.3-3.62-1.34-1.1-2.3,2.67-8.39,3.78-10.09-1.16-1.06-4.84-5-7.17-14-1.52-5.87,3.58-13,9.31-17.54s13.78-7.89,20-4.55c15.38,8.24,21.75,21.62,17.06,35.79a.51.51,0,0,1-.64.32.5.5,0,0,1-.31-.63c4.53-13.67-1.67-26.61-16.58-34.59-4.79-2.57-12.22-.82-18.93,4.45-5.47,4.29-10.37,11.06-9,16.5,2.64,10.26,7.12,13.77,7.16,13.8a.51.51,0,0,1,.12.68c-1.92,2.85-4.69,8-4,9.46.21.45,1.81.78,3.16.8a.5.5,0,0,1,.49.45,11.69,11.69,0,0,0,1.36,4l1-.31a.53.53,0,0,1,.39,0,.49.49,0,0,1,.24.31c0,.1,2.58,9.64,8.11,8.55,5.88-1.18,14.31-6.24,13.92-10.83a.5.5,0,0,1,1-.09c.44,5.3-8.57,10.67-14.72,11.9A6.33,6.33,0,0,1,331.38,228.23Z" style="fill:#263238"></path><path d="M320,199.07a.49.49,0,0,1-.41-.21.49.49,0,0,1,.12-.69,7.79,7.79,0,0,1,7.28-.82.5.5,0,0,1,.25.66.5.5,0,0,1-.66.25c-3.18-1.43-6.26.7-6.29.72A.52.52,0,0,1,320,199.07Z" style="fill:#263238"></path><path d="M326.27,201.39c.5,1,.51,2,0,2.27s-1.31-.35-1.82-1.35-.51-2,0-2.27S325.76,200.39,326.27,201.39Z" style="fill:#263238"></path><path d="M323.36,219.41a.48.48,0,0,1-.44-.27.5.5,0,0,1,.21-.67,9,9,0,0,0,3.59-3.41.51.51,0,0,1,.67-.25.5.5,0,0,1,.24.67,9.92,9.92,0,0,1-4,3.88A.46.46,0,0,1,323.36,219.41Z" style="fill:#263238"></path><path d="M310.85,185.57s-1.89,2.34-1.2,4.62,5,2.19,5,2.19-3-1.63-.87-2.91c0,0,1.49,3.56,4.8,2.81s4.77.49,4.77.49.88-2.11-.71-3.14c0,0,5.3-1.38,7.2,1.67s6.94,2.95,6.94,2.95l-.6-2.64c-.11-.5,5.52,3.62,6.55,5.13l1,1.5s4.11-3.37,6.79-1.54.42,10.35.42,10.35,8.07.26,9.93-2.25a8.83,8.83,0,0,0,1.48-5.73s1.26-.63,2.54,1.17c0,0,.54-3.2-1.86-4.63,0,0,2.72-1.53,2.76-2.91,0,0-2.89-.19-3.81-1.72s-.53-2.32-.53-2.32l2.4.1s.43-2.48-4.78-3.23-12.43-5.17-24.47-6.45S304.89,179.11,310.85,185.57Z" style="fill:#263238"></path><path d="M314,179.64s4.89-12.24,6.68-14.76,12.9-2.38,21.54-2.58,16.76,10.15,16.76,10.15v13.41a132.33,132.33,0,0,0-22.33-3.62c-2.38-.19-4.86-.32-7.4-.35" style="fill:#FFC100"></path><path d="M358.94,186.36l-.13,0a133.79,133.79,0,0,0-22.24-3.6c-2.55-.21-5-.32-7.37-.35a.5.5,0,0,1,0-1c2.36,0,4.86.15,7.43.35a137.6,137.6,0,0,1,21.79,3.47V172.63c-1-1.19-8.49-10-16.25-9.83l-3.19.06c-7.37.13-16.53.3-17.95,2.31-1.74,2.44-6.58,14.53-6.63,14.66a.5.5,0,1,1-.92-.38c.2-.5,4.93-12.32,6.73-14.86S330.61,162,339,161.86l3.19-.06c8.8-.17,16.83,9.91,17.16,10.34a.51.51,0,0,1,.11.31v13.41a.49.49,0,0,1-.2.4A.51.51,0,0,1,358.94,186.36Z" style="fill:#263238"></path><g style="clip-path:url(#freepik--clip-path-23--inject-2)"><path d="M358.94,172.45v13.41a132.33,132.33,0,0,0-22.33-3.62c.32-4.2,1-13.38,1-14.4,0-1.24-4.45-2.33-5-2.46a93.46,93.46,0,0,1,9.81,1.31c2.13.62,6.94,6.4,7.31,8.16s3.87-3.19,4.29-4S358.94,172.45,358.94,172.45Z" style="fill-opacity:0.7000000000000001;opacity:0.30000000000000004"></path></g><path d="M337.44,179.83h-.06a.51.51,0,0,1-.44-.56c0-.09,1.06-8.78.23-11.27-.56-1.68-6.44-2.63-10-2.83a.5.5,0,0,1-.47-.53.5.5,0,0,1,.53-.47c1,.06,10,.64,10.91,3.51.9,2.71-.14,11.34-.18,11.71A.51.51,0,0,1,337.44,179.83Z" style="fill:#263238"></path><path d="M314.22,181.8s-17.71-2.28-18.76-3.62,19.41-1.07,33.75,3.71A73.49,73.49,0,0,0,314.22,181.8Z" style="fill:#FFC100"></path><path d="M329.21,182.39h-.06a72.91,72.91,0,0,0-14.87-.09h-.13c-4.2-.55-18-2.42-19.09-3.81a.63.63,0,0,1,0-.77c1.18-1.68,21.38-.62,34.32,3.7a.49.49,0,0,1,.33.58A.49.49,0,0,1,329.21,182.39Zm-32.76-4.22c2.3.82,10.31,2.16,17.77,3.13a64.54,64.54,0,0,1,10.24-.27C312.93,178.12,299.65,177.67,296.45,178.17Z" style="fill:#263238"></path><g style="clip-path:url(#freepik--clip-path-24--inject-2)"><path d="M314.22,181.8s-17.71-2.28-18.76-3.62,19.41-1.07,33.75,3.71A73.49,73.49,0,0,0,314.22,181.8Z" style="fill-opacity:0.7000000000000001;opacity:0.30000000000000004"></path></g><path d="M341.27,197.4s.21-6,4.3-5.6,6.05.6,6.64,4-.47,6.4-2.43,9.28-2.26,3.81-3.48,3" style="fill:#fff"></path><path d="M347,208.86a1.89,1.89,0,0,1-1-.34.5.5,0,0,1,.54-.85c.54.35.61.4,2-1.71l.8-1.2c2.12-3.11,2.86-5.94,2.35-8.9s-2.19-3.17-6.2-3.56a2.61,2.61,0,0,0-2.06.61c-1.56,1.38-1.69,4.48-1.69,4.51a.5.5,0,0,1-1,0c0-.15.14-3.57,2-5.23a3.66,3.66,0,0,1,2.82-.86c4,.39,6.42.63,7.08,4.39.56,3.19-.26,6.34-2.5,9.64l-.79,1.18C348.45,208,347.85,208.86,347,208.86Z" style="fill:#263238"></path><path d="M410.52,323.86s-10,17.7-23.81,17.35c-17.09-.43-39.52-19-49.73-20.29-6.42-.79-7.71-5.69-6.65-11.74,2-11.37,12.2-26.81,12.2-26.81A95.12,95.12,0,0,1,340,264c-.42-9.26.43-20.61,5.08-30.55,0,0-.24-5.07,10.53-13.47l11.13-7.28s15.86,9.59,25.36,21.31S415.63,318.67,410.52,323.86Z" style="fill:#fff"></path><path d="M387.12,341.71h-.42c-10.2-.26-22-6.75-32.41-12.49-7.12-3.91-13.27-7.3-17.37-7.8a8.15,8.15,0,0,1-5.82-3c-1.55-2.1-2-5.23-1.26-9.32,1.85-10.66,11-25,12.15-26.81A97.63,97.63,0,0,1,339.45,264c-.54-11.94,1.17-22.27,5.08-30.68,0-.9.7-5.94,10.72-13.75l11.17-7.31a.51.51,0,0,1,.53,0c.16.1,16,9.77,25.49,21.42,9.05,11.17,24,84.35,18.48,90.45C410.2,325.42,400.62,341.71,387.12,341.71ZM366.7,213.31l-10.87,7.11c-10.31,8.05-10.3,13-10.3,13a.46.46,0,0,1,0,.23c-3.87,8.29-5.57,18.49-5,30.32A95.62,95.62,0,0,0,343,282.24a.49.49,0,0,1-.06.41c-.1.15-10.2,15.48-12.13,26.61-.66,3.81-.3,6.68,1.08,8.55a7.11,7.11,0,0,0,5.14,2.61c4.29.53,10.52,4,17.73,7.93,10.31,5.68,22,12.11,32,12.36h.39c13.18,0,22.88-16.92,23-17.09a1,1,0,0,1,.08-.11c2.18-2.21.54-19.88-3.88-42-3.57-17.84-9.54-40.89-14.62-47.16C383,223.65,368.82,214.63,366.7,213.31Z" style="fill:#263238"></path><g style="clip-path:url(#freepik--clip-path-25--inject-2)"><path d="M388.69,286.58c-1.38,4-11.06,4.11-11.06,4.11,2.38.94,6.12,14.09,3.84,10.73s-6.82-6.28-6.82-6.28-7.91,12-19.19,15.18c-9.09,2.55-20.91,0-25.13-1.14,2-11.37,12.2-26.81,12.2-26.81A95.12,95.12,0,0,1,340,264c1.61,1.41,4.28,4.37,5.32,1,1.28-4.15,7.29-20.1,8-20.77,8.13-7.32,25.69-10.28,32.28-2.37s-3.43,28.28-2.75,28.88,5.65-3.76,6.64.25-7.38,13.37-7.38,13.37C385.75,285.52,390.08,282.63,388.69,286.58Z" style="fill-opacity:0.7000000000000001;opacity:0.2"></path></g><path d="M297,267.34s-4.33-7.13-3.41-9.24c0,0-2.1-6.57-.13-6.78s7.38,8,7.38,8" style="fill:#fff"></path><path d="M297,267.84a.49.49,0,0,1-.42-.24c-.45-.74-4.24-7.07-3.52-9.51-.36-1.16-1.53-5.24-.58-6.69a1.23,1.23,0,0,1,.93-.58c2.08-.22,6.54,6.25,7.85,8.23a.5.5,0,1,1-.84.55c-2.52-3.83-5.88-7.87-6.91-7.78a.21.21,0,0,0-.19.13c-.55.83.11,4,.75,6a.53.53,0,0,1,0,.35c-.6,1.36,1.76,6.11,3.38,8.78a.51.51,0,0,1-.43.76Z" style="fill:#263238"></path><rect x="290.01" y="233.09" width="3.43" height="28.22" rx="0.92" transform="translate(-89.35 278.7) rotate(-45)" style="fill:#263238"></rect><path d="M295.93,262.18a10.47,10.47,0,0,0,1.58,6.07c2.37,3.17,12,6.33,12,6.33l7.39-8.9s-5.93-10.88-8.31-13.25-7.45-1.72-9.23-4.09-3.53,1.82.28,4.34,1,6.28-1.53,5.48" style="fill:#fff"></path><path d="M309.5,275.08l-.15,0c-.4-.13-9.81-3.25-12.24-6.51a11.08,11.08,0,0,1-1.68-6.38.53.53,0,0,1,.51-.49.5.5,0,0,1,.49.51,10,10,0,0,0,1.48,5.76c2,2.69,9.75,5.47,11.43,6.05l7-8.38c-1-1.75-6-10.76-8.06-12.84-1.07-1.06-2.81-1.48-4.5-1.88-1.85-.45-3.76-.91-4.78-2.26-.31-.42-.58-.53-.7-.5s-.3.24-.36.61a3.8,3.8,0,0,0,2,3.51c2.24,1.48,2.4,3.36,1.8,4.63a3.17,3.17,0,0,1-3.75,1.75.5.5,0,0,1-.33-.62.49.49,0,0,1,.63-.33,2.21,2.21,0,0,0,2.55-1.23c.54-1.15,0-2.41-1.45-3.36-2.14-1.42-2.66-3.32-2.45-4.52a1.63,1.63,0,0,1,1.12-1.41c.34-.08,1-.08,1.73.87s2.46,1.46,4.21,1.88,3.71.89,5,2.16c2.39,2.39,8.14,12.92,8.39,13.36a.48.48,0,0,1-.06.56l-7.38,8.9A.5.5,0,0,1,309.5,275.08Z" style="fill:#263238"></path><path d="M307.59,273.2c15.76,24.33,30.37,31.55,37,33.43,16,4.55,24-14.77,24-14.77l-18.46-17.41-3.3,5.38S340.71,273,315,263.37" style="fill:#fff"></path><path d="M349.34,307.81a17.88,17.88,0,0,1-4.9-.7c-5.7-1.62-20.75-8.14-37.27-33.64a.5.5,0,0,1,.15-.69.49.49,0,0,1,.69.15c16.33,25.21,31.11,31.63,36.71,33.21C359,310.21,366.87,294.42,368,292l-17.75-16.74-3,4.85a.53.53,0,0,1-.39.24.49.49,0,0,1-.41-.17c-.07-.07-6.4-6.92-31.58-16.32a.5.5,0,1,1,.35-.93c22,8.22,29.67,14.4,31.5,16.12l3-4.84a.48.48,0,0,1,.36-.24.47.47,0,0,1,.4.14l18.46,17.4a.5.5,0,0,1,.12.56C369,292.22,362.37,307.81,349.34,307.81Z" style="fill:#263238"></path><path d="M349,288.25a.49.49,0,0,1-.49-.47s-.27-4.83-2.15-7.67a.5.5,0,1,1,.84-.56c2,3.08,2.29,8,2.3,8.18a.49.49,0,0,1-.47.52Z" style="fill:#263238"></path><path d="M382.84,262.38a.5.5,0,0,1-.34-.13.51.51,0,0,1,0-.71c5-5.43,6.5-17.23,6.52-17.35a.5.5,0,0,1,1,.13c-.06.49-1.59,12.23-6.77,17.9A.49.49,0,0,1,382.84,262.38Z" style="fill:#263238"></path><path d="M383.73,324.79a70.19,70.19,0,0,1-9.75-.62c-10.1-1.48-27.29-6.6-27.46-6.65a.49.49,0,0,1-.34-.62.51.51,0,0,1,.62-.34c.17.06,17.29,5.15,27.33,6.61,10.32,1.51,23.78-.18,24.72-.87a.5.5,0,0,1,.7,0,.5.5,0,0,1,0,.71C398.67,323.8,391.49,324.79,383.73,324.79Z" style="fill:#263238"></path><path d="M372.34,288.25a.5.5,0,0,1-.24-.93c9.06-5,19.24-19.67,19.35-19.81a.49.49,0,0,1,.69-.13.5.5,0,0,1,.13.7c-.42.6-10.42,15-19.68,20.11A.54.54,0,0,1,372.34,288.25Z" style="fill:#263238"></path><path d="M381.47,299.15a.49.49,0,0,1-.42-.24c-4.26-7-10.24-7.72-10.3-7.72a.5.5,0,0,1,.1-1c.27,0,6.52.75,11,8.2a.51.51,0,0,1-.17.69A.59.59,0,0,1,381.47,299.15Z" style="fill:#263238"></path><path d="M385.2,238.85c3.72,20-15,53-15,53s-1.05,7.38-4.38,0-19-12-19-12c-2.24-3.47,0-4.85,0-4.85,0-9.3,3.28-15.37,2.23-19.73-2.37-9.76-1.7-21.57,2.26-29.79a30.88,30.88,0,0,0-6.28,8s-2.72-5.07,10.23-15.46c11.76-9.43,14.12-3.57,14.12-3.57S381.51,218.93,385.2,238.85Z" style="fill:#FFC100"></path><path d="M368.39,295.64c-1,0-2-1.15-3.07-3.58-3.19-7.09-18.49-11.7-18.64-11.75a.46.46,0,0,1-.28-.21,5,5,0,0,1-1-3.8,3,3,0,0,1,.91-1.57,54.68,54.68,0,0,1,1.52-11.57c.68-3.19,1.22-5.72.72-7.79-2.25-9.27-1.72-19.83,1.27-27.73a29.17,29.17,0,0,0-4.36,6.06.48.48,0,0,1-.44.27h0a.51.51,0,0,1-.44-.26c-.12-.22-2.77-5.57,10.36-16.09,5.34-4.28,9.52-6.07,12.42-5.31a3.75,3.75,0,0,1,2.37,1.74c1.62.67,12.45,5.85,15.95,24.7h0c3.65,19.71-13.79,51-15.05,53.27-.12.75-.63,3.4-2.07,3.61Zm-21.25-16.23c1.85.56,15.87,5.08,19.1,12.24,1.32,2.94,2.06,3,2.19,3,.5-.07,1.05-1.56,1.23-2.85a.55.55,0,0,1,.06-.18c.19-.33,18.63-33,15-52.67-3.6-19.41-15.39-24-15.5-24a.47.47,0,0,1-.29-.28,2.69,2.69,0,0,0-1.84-1.36c-1.77-.45-5.2.08-11.5,5.13-8.75,7-10.19,11.51-10.27,13.56a31.68,31.68,0,0,1,5.67-6.88.5.5,0,0,1,.78.6c-3.79,7.86-4.66,19.42-2.23,29.46.56,2.29,0,4.91-.71,8.23a52.83,52.83,0,0,0-1.5,11.61.49.49,0,0,1-.24.42C347,275.45,345.38,276.55,347.14,279.41Z" style="fill:#263238"></path><path d="M353.19,223.39a.5.5,0,0,1-.39-.18.5.5,0,0,1,.06-.7c9.24-7.81,16.07-8.88,16.76-8.51a.5.5,0,0,1-.42.91c-.7-.07-7.06,1.07-15.69,8.36A.49.49,0,0,1,353.19,223.39Z" style="fill:#263238"></path><path d="M355.46,231.5a.54.54,0,0,1-.33-.12.51.51,0,0,1-.05-.71c.14-.16,3.42-3.89,7.78-4.9,4.17-1,12.31-.68,16.43,4.25a.5.5,0,0,1-.07.7.49.49,0,0,1-.7-.06c-3.62-4.34-11.2-4.9-15.43-3.92-4,.94-7.22,4.55-7.25,4.59A.52.52,0,0,1,355.46,231.5Z" style="fill:#263238"></path><path d="M349.23,257h-.06a.5.5,0,0,1-.44-.56,36.36,36.36,0,0,0,.1-3.66c0-3,0-6.75.73-9.21l-.09.14a.5.5,0,0,1-.85-.54c1.22-1.92,1.64-1.92,2-1.76.52.25.41.88,0,2.19-.77,2.29-.77,6.11-.77,9.18a35.81,35.81,0,0,1-.11,3.78A.49.49,0,0,1,349.23,257Z" style="fill:#263238"></path><path d="M361.28,278.27a.45.45,0,0,1-.31-.11c-4.84-3.88-14-2.7-14.08-2.69a.5.5,0,0,1-.57-.43.51.51,0,0,1,.43-.56c.39-.05,9.68-1.25,14.85,2.9a.52.52,0,0,1,.07.71A.5.5,0,0,1,361.28,278.27Z" style="fill:#263238"></path><path d="M403.81,351.33c-10,18.74-89,19.62-89,19.62s19.12,38.92,20.7,40.2,0,7.05,0,7.05,7.41,8.44,6.6,12.81a153,153,0,0,0-15.3,1.46c-6.06,1.06-18.72-2-23-1.83L300,426.51l-1.75-1.89,2-4.57s-6.49-10.33-6.49-11.77S288,397,288,397s-28.61-31.53-23.58-52.38c6.2-25.7,55.23-32.62,81.14-26.29l.08,0c1.09.46,13.08,5.49,22.77,8.9,4.85,1.71,9.13,3,11.17,3.13,25.92,1.59,30.93-6.5,30.93-6.5S413.84,332.58,403.81,351.33Z" style="fill:#757575"></path><path d="M323.68,433.2a93.3,93.3,0,0,1-12.1-1.23,55.47,55.47,0,0,0-7.76-.83.53.53,0,0,1-.39-.16l-5.6-6a.51.51,0,0,1-.09-.54l1.92-4.33c-1.36-2.17-6.43-10.36-6.43-11.81,0-.81-2.86-6.23-5.63-11-1.6-1.78-28.65-32.11-23.66-52.8,1.7-7,6.58-13,14.51-17.87,18.48-11.27,48.7-13.32,67.24-8.79l.15.06c.52.22,12.76,5.37,22.75,8.89,5.46,1.93,9.27,3,11,3.1,25.19,1.55,30.43-6.19,30.48-6.27a.49.49,0,0,1,.47-.23.52.52,0,0,1,.42.32c.14.37,3.28,9.15-6.74,27.89-9.62,18-79.88,19.72-88.65,19.87,7.62,15.49,19,38.26,20.22,39.32,1.63,1.32.6,5.88.23,7.31,1.16,1.36,7.32,8.81,6.54,13a.5.5,0,0,1-.47.41A152.7,152.7,0,0,0,326.88,433,18.29,18.29,0,0,1,323.68,433.2Zm-19.56-3.07a65.57,65.57,0,0,1,7.6.85c5.06.73,11.35,1.63,15,1a149.88,149.88,0,0,1,15-1.45c.27-4.19-6.47-11.92-6.54-12a.48.48,0,0,1-.1-.46c.62-2.27,1.09-5.79.17-6.53-1.62-1.31-18.88-36.38-20.84-40.37a.51.51,0,0,1,0-.48.49.49,0,0,1,.42-.24c.79,0,78.81-1.09,88.58-19.36h0c8-15,7.4-23.52,6.9-26.16-2,2.06-9.39,7.24-30.71,5.93-1.87-.11-5.68-1.17-11.31-3.16-10-3.52-22.28-8.69-22.79-8.91-17.95-4.39-48.47-2.32-66.49,8.66-7.69,4.69-12.42,10.49-14.05,17.26-4.91,20.35,23.18,51.61,23.46,51.92l.06.09c1,1.67,5.79,10.06,5.79,11.56,0,.82,3.27,6.5,6.41,11.5a.52.52,0,0,1,0,.47l-1.89,4.27,5.22,5.61Zm38,.88h0Z" style="fill:#263238"></path><g style="clip-path:url(#freepik--clip-path-26--inject-2)"><path d="M403.81,351.33c-10,18.74-89,19.62-89,19.62s19.12,38.92,20.7,40.2,0,7.05,0,7.05,7.41,8.44,6.6,12.81a153,153,0,0,0-15.3,1.46c-6.06,1.06-18.72-2-23-1.83L300,426.51c4.69-1.21,17.91,2.32,19.91,2.65,2.37.4,17.58-3.3,17.58-3.3a52.83,52.83,0,0,1-10.07,0c-5.34-.55-9.1-5-7.51-5.09s12.06-5.45,12.85-9.4-4.55-5.12-8.5-5.12-14.24-.59-16.62-5.09,6.53-2,11.08-5.79,0-10.88-5.74-10.28-19.38-5.74-15.67-7.32S310,374.6,310,374.6s-12.87-.24-18.24-6.06,2.41-9.17,14.77-4.22,71.13-4.16,71.13-4.16-2.19-3.75-1.49-4.74,12.7,1.07,13.32,1.17c-.24-.22-2.89-2.77,2.4-7.3,5.54-4.75,6.33-16.62,6.33-16.62-6.24,2.94-7.72,1.25-7.9,1,.11.41,1.38,4.8,1.57,5.74s-6.93,0-15.72-7.32a43.2,43.2,0,0,0-7.72-4.85c4.85,1.71,9.13,3,11.17,3.13,25.92,1.59,30.93-6.5,30.93-6.5S413.84,332.58,403.81,351.33Z" style="fill-opacity:0.7000000000000001;opacity:0.2"></path></g><path d="M390.27,337.72a.39.39,0,0,1-.18,0c-.33-.13-8-3.24-12.79-7.25a.5.5,0,1,1,.65-.76c4.62,3.91,12.43,7.05,12.51,7.09a.5.5,0,0,1,.28.65A.51.51,0,0,1,390.27,337.72Z" style="fill:#263238"></path><path d="M301.35,372.11a11.77,11.77,0,0,1-4.23-.69,4,4,0,0,1-2.58-3.24,2.93,2.93,0,0,1,1.11-2.8,2.88,2.88,0,0,1,3.08.08c3.66,1.93,16.07,5,16.19,5a.5.5,0,0,1,.37.6.51.51,0,0,1-.61.37c-.51-.13-12.65-3.11-16.42-5.1a1.68,1.68,0,0,0-2.73,1.73,3,3,0,0,0,2,2.42c3.56,1.4,8.74,0,8.79,0a.5.5,0,0,1,.61.35.49.49,0,0,1-.35.61A21.49,21.49,0,0,1,301.35,372.11Z" style="fill:#263238"></path><path d="M300.22,420.54a.45.45,0,0,1-.27-.08.49.49,0,0,1-.15-.69c1.47-2.25,2-3.59,1.73-4.46s-1-1.32-2.82-2.1a.51.51,0,0,1-.26-.66.5.5,0,0,1,.66-.26c1.81.79,3,1.52,3.37,2.73s-.15,2.7-1.84,5.3A.52.52,0,0,1,300.22,420.54Z" style="fill:#263238"></path><path d="M306.5,403.39h-.11c-.61-.14-15.07-3.42-18.67-6a.5.5,0,1,1,.58-.81c3.44,2.46,18.16,5.8,18.31,5.83a.5.5,0,0,1-.11,1Z" style="fill:#263238"></path><path d="M325.39,423.83a2.64,2.64,0,0,1-1.45-.38.5.5,0,0,1,.54-.84c1.8,1.16,7.53-2.33,10.72-4.8a.5.5,0,0,1,.7.08.51.51,0,0,1-.09.71C335,419.2,329,423.83,325.39,423.83Z" style="fill:#263238"></path><path d="M322.43,420.54h-.14a.5.5,0,0,1-.34-.62s.88-3.3-.88-5.24l-.28-.31c-3.79-4.16-8.22-9.21-8.92-11.31a3.72,3.72,0,0,1,.35-3,2.39,2.39,0,0,0-.09-2.83c-.48-.69-1.39-1.89-2.45-3.29-3-3.94-7.1-9.35-7.71-11.31-.75-2.45-3.63-7.66-7.15-9.18-3.07-1.32-3-4.62-2.44-6.44a7.37,7.37,0,0,1-1.66-8.46c1.52-3.45,7-5.23,12.77-7.12a61.41,61.41,0,0,0,8-3c7-3.49,30.18-1.21,36.11-.25s20.37-1.84,22.84-4,8.1-8.59,8.15-8.65a.51.51,0,0,1,.71-.05.49.49,0,0,1,.05.7c-.23.26-5.57,6.38-8.25,8.75-2.89,2.56-17.7,5.24-23.66,4.28-5.63-.91-28.81-3.18-35.5.16a62.86,62.86,0,0,1-8.17,3.06c-5.33,1.74-10.83,3.53-12.17,6.57a6.34,6.34,0,0,0,1.64,7.52.52.52,0,0,1,.16.56c-.06.16-1.42,4.13,1.78,5.5,4.05,1.75,7,7.47,7.72,9.81.55,1.79,4.76,7.33,7.54,11,1.07,1.4,2,2.62,2.48,3.32a3.34,3.34,0,0,1,.19,3.81,2.79,2.79,0,0,0-.32,2.23c.72,2.17,6.73,8.78,8.71,10.95l.28.31c2.14,2.36,1.14,6,1.1,6.19A.49.49,0,0,1,322.43,420.54Z" style="fill:#263238"></path><path d="M356.83,330.55a.49.49,0,0,1-.44-.26c-4.21-7.68-23.6-12.71-23.8-12.76a.5.5,0,0,1,.25-1c.81.21,20,5.19,24.43,13.25a.51.51,0,0,1-.2.68A.53.53,0,0,1,356.83,330.55Z" style="fill:#263238"></path><path d="M398,355.92a.49.49,0,0,1-.32-.12l-4-3.36a.51.51,0,0,1,.46-.87c.13,0,1.2-.26,3.38-4.3,2.69-5,3.89-13.62,3.9-13.7a.51.51,0,0,1,.5-.44h7.31a.5.5,0,0,1,.5.5.5.5,0,0,1-.5.5h-6.88c-.28,1.85-1.49,9-3.95,13.61-1.5,2.78-2.6,4-3.38,4.53l3.26,2.77a.5.5,0,0,1-.32.88Zm-3.74-4.31h0Zm0,0Zm0,0Zm0,0Z" style="fill:#263238"></path><path d="M328.74,379.44c-5.33-6.55.93-17.44,18.08-21s54.33-.11,71.34,4.87S431.22,250.08,428.85,239s9.1-13.77,14.63-7.5,2,10.62-2.77,12.79c0,0,3.56,116-6.72,130.08s-20.37-4.53-55.09-2.72-34.11,7.83-34.11,7.83S335.82,388.12,328.74,379.44Z" style="fill:#bfbfbf"></path><path d="M336.05,383.8l-.54,0a9.88,9.88,0,0,1-7.15-4h0a8.66,8.66,0,0,1-1.39-8.67c2.17-6.11,9.55-11,19.75-13.17,17-3.55,54.17-.22,71.59,4.89a3.1,3.1,0,0,0,3.13-.87c12.16-11.28,9.36-111.42,6.92-122.88-1-4.82.44-8.76,3.94-10.52a9.85,9.85,0,0,1,11.56,2.59c2.36,2.67,3.31,5.23,2.81,7.59s-2.42,4.39-5.45,5.85c.25,8.13,3.27,116.18-6.83,130.05-5.71,7.84-11.33,6-20.65,2.87-7.91-2.62-18.73-6.22-34.81-5.38-33.06,1.72-33.64,7.26-33.64,7.31a.44.44,0,0,1-.15.38C345,380,341,383.8,336.05,383.8Zm-6.92-4.68a8.92,8.92,0,0,0,6.43,3.66c4.21.26,8-2.92,8.76-3.58a2.38,2.38,0,0,1,.59-1.11c1.75-2,8.48-5.65,34-7,16.26-.85,27.19,2.78,35.17,5.43,9.19,3.06,14.26,4.74,19.53-2.51,10.07-13.83,6.67-128.6,6.63-129.76a.5.5,0,0,1,.3-.47c1.68-.77,4.59-2.48,5.18-5.28.43-2-.44-4.3-2.58-6.73a8.83,8.83,0,0,0-10.36-2.36c-3.11,1.57-4.36,5-3.42,9.42,2.27,10.62,5.74,111.81-7.21,123.82a4,4,0,0,1-4.1,1.09c-17.31-5.07-54.25-8.38-71.1-4.86-11.6,2.43-17.42,8.06-19,12.52a7.7,7.7,0,0,0,1.21,7.7Z" style="fill:#263238"></path></g></svg>